<?xml version="1.0" encoding="utf-8"?>
<!-- Generator: Adobe Illustrator 25.4.1, SVG Export Plug-In . SVG Version: 6.00 Build 0)  -->
<svg version="1.1" id="Layer_1" xmlns="http://www.w3.org/2000/svg" xmlns:xlink="http://www.w3.org/1999/xlink" x="0px" y="0px"
	 viewBox="0 0 165 160" style="enable-background:new 0 0 165 160;" xml:space="preserve">
<style type="text/css">
	.st0{fill:#788866;stroke:#E4E5E6;stroke-width:3;stroke-miterlimit:10;}
	.st1{fill:#82C566;}
	.st2{font-family:'BerlinSansFBDemi-Bold';}
	.st3{font-size:12px;}
	.st4{fill:#C9CACC;}
	.st5{font-size:20px;}
	.st6{fill:none;}
</style>
<circle class="st0" cx="81.91" cy="80.08" r="78.25"/>
<g>
	<g>
		<path d="M116.31,41.96c-0.05,0.98,0.15,1.94,0.27,2.91c0.18,1.48-0.1,2.88-0.73,4.23c-0.41,0.89-0.86,1.76-1.29,2.64
			c-0.14,0.29-0.26,0.6-0.38,0.9c-0.31,0.72-0.41,1.44-0.13,2.2c0.19,0.53,0.16,1.09-0.15,1.58c-0.35,0.56-0.33,1.12-0.16,1.72
			c0.32,1.14,0.89,2.17,1.56,3.16c1.49,2.22,3.12,4.34,4.71,6.5c1.01,1.38,1.74,2.86,2.02,4.53c0.15,0.89-0.06,1.73-0.23,2.59
			c-0.36,1.82-0.61,3.66-0.88,5.49c-0.28,1.95-0.54,3.89-0.79,5.84c-0.22,1.67-0.41,3.34-0.6,5.01c-0.22,1.93-0.43,3.86-0.62,5.79
			c-0.2,2.02-0.35,4.04-0.44,6.06c-0.15,3.37-0.21,6.74-0.42,10.11c-0.15,2.44-0.52,4.86-1.01,7.27c-0.37,1.84-0.53,3.69,0.02,5.54
			c0.2,0.67,0.54,1.17,1.23,1.51c0.78,0.39,1.56,0.82,2.28,1.31c1.4,0.95,1.7,1.96,0.99,3.4c-0.39,0.79-0.91,1.52-1.46,2.22
			c-0.68,0.87-1.66,0.91-2.68,0.74c-1.29-0.22-2.38-0.83-3.42-1.53c-0.34-0.23-0.53-0.18-0.77,0.07c-0.44,0.47-0.9,0.93-1.33,1.41
			c-1.39,1.59-3.22,2.04-5.37,1.76c-1.13-0.15-2.27-0.3-3.42-0.29c-0.72,0-1.41,0.12-2.06,0.4c-0.23,0.1-0.47,0.19-0.71,0.29
			c-0.78,0.32-1.57,0.42-2.43,0.24c-1.59-0.33-3.17-0.12-4.75,0.1c-1.87,0.26-3.69,0.77-5.56,1.03c-0.69,0.1-1.37,0.15-2.08,0.06
			c-1.02-0.13-1.82-0.57-2.38-1.34c-0.15-0.2-0.24-0.21-0.47-0.1c-2.05,1.04-4.27,1.59-6.58,1.87c-1.91,0.23-3.81,0.23-5.68-0.23
			c-1.2-0.3-2.3-0.78-3.15-1.63c-0.17-0.16-0.29-0.11-0.46-0.04c-3.64,1.48-7.4,2.62-11.29,3.41c-3.96,0.8-7.96,1.21-12.01,1.06
			c-2.07-0.07-4.13-0.27-6.15-0.73c-0.5-0.12-0.98-0.31-1.39-0.61c-0.3-0.22-0.53-0.5-0.68-0.82c-0.31-0.67-0.29-0.7,0.44-0.94
			c1.76-0.59,3.58-0.96,5.44-1.16c4.43-0.46,8.62-1.63,12.67-3.29c1.29-0.53,2.6-1.01,3.94-1.42c0.21-0.07,0.27-0.13,0.13-0.33
			c-1.69-2.39-2.47-5.06-2.92-7.82c-0.42-2.58-0.51-5.17-0.32-7.76c0.36-4.95,1.36-9.76,3.67-14.29c0.82-1.6,1.85-3.09,3.28-4.31
			c2.6-2.22,4.12-5.03,5.49-7.94c1.39-2.96,2.58-6,4.11-8.91c1.61-3.06,3.33-6.06,5.61-8.76c0.79-0.93,1.6-1.85,2.34-2.81
			c0.96-1.23,1.39-2.6,1.54-4.08c0.34-3.44,1.59-6.58,3.88-9.37c0.4-0.49,0.87-0.93,1.38-1.31c1.09-0.8,1.31-1.84,1.16-3.03
			c-0.23-1.8-0.97-3.46-1.65-5.13c-0.54-1.34-1.14-2.67-1.38-4.09c-0.09-0.55-0.13-1.11-0.09-1.66c0.06-0.78,0.04-1.56,0.05-2.33
			c0-0.22-0.09-0.37-0.25-0.51c-0.45-0.4-0.96-0.73-1.47-1.07c-0.86-0.58-1.6-1.24-1.81-2.25c-0.05-0.22-0.22-0.14-0.35-0.14
			c-0.92,0.02-1.82-0.12-2.68-0.41c-0.25-0.08-0.33-0.2-0.33-0.43c-0.02-0.6,0.36-1,0.82-1.34c1.34-0.97,2.66-1.97,4.05-2.89
			c1.21-0.81,2.4-1.64,3.42-2.64c0.78-0.77,1.69-0.93,2.75-0.58c0.24,0.08,0.5,0.14,0.73,0.23c1.12,0.46,2.25,0.42,3.38,0.04
			c0.48-0.16,0.98-0.3,1.45-0.49c1.89-0.73,3.81-0.89,5.79-0.34c1.33,0.37,2.49,0.11,3.56-0.67c0.62-0.45,1.27-0.87,1.72-1.47
			c1.17-1.59,2.89-1.77,4.71-1.4c2.24,0.46,3.72,1.83,4.73,3.64c0.11,0.2,0.24,0.33,0.49,0.39c0.76,0.2,1.47,0.51,2.26,0.63
			c0.11,0.02,0.2,0.07,0.28,0.15c1.38,1.42,2.93,2.7,4.23,4.18c0.89,1.02,1.82,2,2.64,3.07c0.67,0.87,1.18,1.81,1.23,2.9
			c0.04,0.73,0.03,0.67-0.73,0.62c-0.83-0.06-1.53-0.41-2.17-0.88c-0.33-0.24-0.67-0.47-1-0.71c-0.13-0.09-0.24-0.13-0.36,0.03
			c-0.72,0.93-1.71,1.58-2.74,2.2c-0.27,0.16-0.53,0.37-0.82,0.48c-0.99,0.39-1.21,1.15-1.24,2.01
			C116.3,41.46,116.31,41.71,116.31,41.96z M94.26,130.95c1,0.14,1.9,0.06,2.79-0.03c1.63-0.17,3.2-0.57,4.78-0.96
			c1.84-0.46,3.68-0.91,5.62-0.78c0.99,0.07,1.94,0.25,2.76,0.8c0.25,0.17,0.53,0.31,0.81,0.43c0.44,0.18,0.64,0.05,0.64-0.39
			c0-0.43-0.18-0.79-0.46-1.12c-0.29-0.34-0.65-0.63-1-0.93c-0.75-0.63-1.1-1.4-1.12-2.34c-0.03-1.89,0.28-3.74,0.53-5.6
			c0.44-3.26,0.9-6.52,1-9.8c0.06-2.05-0.03-4.1-0.53-6.11c-0.19-0.79-0.45-1.55-0.88-2.34c-0.72,1.26-1.78,2.19-2.72,3.21
			c-0.46,0.51-0.87,1.04-1.21,1.63c-0.14,0.24-0.13,0.32,0.21,0.34c2,0.14,3.43,1.31,3.69,3.01c0.35,2.22,0.19,4.42-0.55,6.56
			c-1.93,5.61-5.68,9.94-11.25,12.97C96.41,130.01,95.39,130.47,94.26,130.95z"/>
	</g>
</g>
<text transform="matrix(1 0 0 1 -2.0656 86.0755)"><tspan x="0" y="0" class="st1 st2 st3">        </tspan><tspan x="24" y="0" class="st4 st2 st5">Being prepared</tspan></text>
<path id="SVGID_x5F_1_x5F_" class="st6" d="M130.38,108.36c0,43.21-35.03,78.25-78.25,78.25s-78.25-35.03-78.25-78.25
	S8.92,30.11,52.13,30.11S130.38,65.15,130.38,108.36z"/>
<text><textPath  xlink:href="#SVGID_x5F_1_x5F_" startOffset="79.3945%">
</textPath>
</text>
</svg>
