<?xml version="1.0" encoding="utf-8"?>
<!-- Generator: Adobe Illustrator 25.4.1, SVG Export Plug-In . SVG Version: 6.00 Build 0)  -->
<svg version="1.1" id="Layer_1" xmlns="http://www.w3.org/2000/svg" xmlns:xlink="http://www.w3.org/1999/xlink" x="0px" y="0px"
	 viewBox="0 0 165 160" style="enable-background:new 0 0 165 160;" xml:space="preserve">
<style type="text/css">
	.st0{fill:none;}
	.st1{fill:#7B7C7F;stroke:#E4E5E6;stroke-width:3;stroke-miterlimit:10;}
	.st2{opacity:0.6;fill:#B88322;stroke:#E4E5E6;stroke-width:3;stroke-miterlimit:10;}
	.st3{fill:#82C566;}
	.st4{font-family:'BerlinSansFBDemi-Bold';}
	.st5{font-size:12px;}
	.st6{fill:#C9CACC;}
	.st7{font-size:18px;}
	.st8{letter-spacing:31;}
</style>
<path id="SVGID_x5F_1_x5F_" class="st0" d="M172.13,17.37c0,43.21-35.03,78.25-78.25,78.25S15.64,60.59,15.64,17.37
	s35.03-78.25,78.25-78.25S172.13-25.84,172.13,17.37z"/>
<text><textPath  xlink:href="#SVGID_x5F_1_x5F_" startOffset="79.3945%">
</textPath>
</text>
<circle class="st1" cx="82.64" cy="81.09" r="78.25"/>
<circle class="st2" cx="82.36" cy="80.65" r="78.25"/>
<path id="SVGID_x5F_00000016769868187387543460000010255340442265146026_x5F_" class="st0" d="M163.26,150.93
	c0,43.21-35.03,78.25-78.25,78.25S6.77,194.14,6.77,150.93S41.8,72.68,85.02,72.68S163.26,107.71,163.26,150.93z"/>
<text><textPath  xlink:href="#SVGID_x5F_00000016769868187387543460000010255340442265146026_x5F_" startOffset="79.3945%">
</textPath>
</text>
<g>
	<g>
		<path d="M68.57,90.14c0.2,1.21,0.44,2.26,0.1,3.32c-0.08,0.24-0.17,0.46-0.33,0.66c-1.45,1.78-2.49,3.77-3.17,5.96
			c-1.2,3.81-2.59,7.54-4.43,11.1c-1.76,3.4-2.76,7.07-3.62,10.78c-0.15,0.66-0.01,1.36-0.18,2.03c-0.16,0.64-0.43,1.13-1.05,1.49
			c-1.22,0.71-1.8,1.88-2,3.23c-0.1,0.66-0.29,1.28-0.54,1.89c-0.21,0.51-0.52,0.89-1.03,1.2c-0.54,0.32-0.99,0.81-1.21,1.49
			c-0.47,1.46-1.41,2.46-2.99,2.75c-0.15,0.03-0.31,0.08-0.45,0.15c-2.23,1.25-4.56,1.12-6.92,0.5c-0.22-0.06-0.43-0.18-0.66-0.08
			c-0.45,0.19-0.87,0.47-1.01-0.37c-0.03-0.17-0.58-0.47-0.99-0.42c-0.55,0.07-0.57-0.24-0.44-0.62c0.19-0.57,0.6-1.02,0.98-1.46
			c1.61-1.84,3.52-3.18,6.01-3.54c0.64-0.09,1.07-0.58,1.51-0.99c1.98-1.82,3.17-4.16,4.28-6.55c0.38-0.82,0.34-1.67,0.49-2.51
			c0.36-1.99,1.05-3.89,1.74-5.78c0.91-2.48,1.31-5.08,1.88-7.64c0.78-3.47,1.14-7.02,1.98-10.48c0.46-1.89,0.96-3.77,1.61-5.61
			c0.42-1.19,0.42-2.46,0.45-3.7c0.07-3.15,0.08-6.34-0.46-9.43c-0.8-4.56,0.31-8.68,2.23-12.68c1.59-3.31,3.33-6.55,5.01-9.81
			c0.15-0.29,0.18-0.53,0.05-0.83c-0.2-0.46-0.37-0.93-0.55-1.39c-0.43-1.09-0.3-2.09,0.54-2.95c0.15-0.16,0.35-0.27,0.3-0.56
			c-0.33-1.91-0.24-3.84-0.25-5.77c0-0.99-0.21-1.2-1.2-1.19c-0.66,0.01-1.31,0.14-1.94,0.32c-1.49,0.41-2.91,0.33-4.26-0.49
			c-0.16-0.1-0.33-0.16-0.52-0.12c-1.79,0.37-2.61-1.04-2.88-2.6c-0.14-0.81-0.18-1.62-0.15-2.44c0.02-0.56,0.05-1.1-0.37-1.59
			c-0.28-0.33-0.17-0.77,0.04-1.15c0.3-0.52,0.72-0.92,1.22-1.25c1.48-0.98,2.98-2.01,3.89-3.54c0.44-0.74,1.02-1.64,0.7-2.67
			c-0.01-0.04-0.03-0.09-0.02-0.13c0.17-0.6,0.11-1.08-0.7-1.24c0.68-0.13,0.84-0.54,1-1.08c0.44-1.47,1.34-2.66,2.46-3.69
			c2.06-1.88,4.54-2.98,7.21-3.64c1.98-0.49,3.96-0.94,6.04-0.68c2.44,0.31,4.48,1.37,6.17,3.12c0.33,0.35,0.61,0.54,1.14,0.43
			c1.37-0.28,2.49,0.27,3.38,1.3c0.89,1.03,1.71,2.11,2.72,3.04c0.56,0.51,1.27,0.78,1.86,1.24c1.63,1.28,2.44,3.03,2.9,5
			c0.4,1.71,0.41,3.45,0.47,5.2c0.04,1.09,0.2,2.16,0.8,3.12c0.18,0.28,0.29,0.62-0.01,0.86c-0.27,0.22-0.52-0.04-0.71-0.21
			c-0.33-0.28-0.63-0.58-0.92-0.9c-0.68-0.76-1.54-1.18-2.52-1.39c-1.01-0.21-1.35-0.56-1.43-1.63c-0.06-0.78,0.05-1.59-0.39-2.31
			c-0.34-0.56-0.76-0.99-1.37-1.25c-0.42-0.18-0.49-0.01-0.45,0.34c0.2,1.87,0.3,3.75,0.3,5.63c0,0.5,0,1-0.02,1.49
			c-0.06,1.42,0.24,2.7,1.4,3.65c0.05,0.04,0.1,0.09,0.15,0.14c-0.58,0.52,0.28,0.51,0.3,0.87c-0.57-0.09-0.68,0.21-0.56,0.7
			c0.04,0.17,0.08,0.39,0,0.54c-0.37,0.76,0.11,1.22,0.52,1.76c0.94,1.23,1.61,2.61,2.2,4.05c0.36,0.89,0.97,1.68,1.47,2.52
			c0.78,1.31,1.4,2.72,1.73,4.2c0.37,1.66,1.31,2.92,2.39,4.12c1.43,1.61,3.03,3.06,4.31,4.8c2.35,3.18,4.35,6.57,6.29,10
			c1.77,3.13,3.65,6.21,5.4,9.35c2.34,4.22,4.59,8.49,6.29,13.02c1.1,2.92,2.34,5.79,2.97,8.88c0.65,3.21,0.9,6.41,0.27,9.64
			c-0.13,0.69-0.23,1.38-0.35,2.08c-0.12,0.73,0.1,1.04,0.85,1.12c1.02,0.11,1.98-0.15,2.94-0.44c1.6-0.5,3.15-1.14,4.66-1.87
			c0.3-0.15,0.6-0.28,0.88-0.4c0.21,0.17-0.15,0.3,0.08,0.48c2.24-1.14,4.67-2.06,5.9-4.6c0.28,0.3,0.29,0.67,0.38,1.01
			c0.06,0.22,0.06,0.19,0.31,0.39c0.11,0.09,0.12,0.33,0.13,0.5c0.04,1.17-0.42,2.16-1.14,3.05c-1.37,1.68-3.2,2.71-5.12,3.62
			c-0.27,0.13-0.55,0.21-0.81,0.35c-0.06,0.03-0.59,0.01-0.13,0.33c0.14,0.1-0.11,0.2-0.21,0.26c-2.63,1.59-5.39,2.78-8.51,2.94
			c-0.43,0.02-0.86,0-1.29-0.07c-0.44-0.08-0.67,0.1-0.87,0.46c-0.42,0.8-0.29,1.64,0.39,2.28c1.03,0.97,1.1,2.58,0.13,3.59
			c-0.38,0.4-0.94,0.41-1.45,0.5c-1.37,0.22-2.75,0.26-4.13,0.38c-1.7,0.14-3.31,0.75-4.98,1.07c-1.85,0.36-3.6,1.03-5.36,1.68
			c-0.67,0.24-1.37,0.28-2.07,0.36c-0.6,0.07-1.22-0.02-1.69,0.52c-0.15,0.17-0.47,0.2-0.61-0.01c-0.29-0.43-0.66-0.43-1.11-0.39
			c-0.3,0.03-0.64-0.06-0.92-0.2c-0.56-0.27-1.07-0.49-1.71-0.18c-0.42,0.2-0.65-0.09-0.59-0.52c0.07-0.55-0.18-0.64-0.64-0.51
			c-0.17,0.05-0.36,0.15-0.51-0.01c-0.18-0.19-0.01-0.38,0.04-0.57c0.84-3,3.1-4.15,5.93-4.61c1.37-0.23,2.75-0.48,4.17-1.15
			c-1.02-0.35-1.88-0.66-2.68-1.12c-1.11-0.63-2.18-1.3-3.19-2.08c-0.34-0.26-0.64-0.31-1.05-0.15c-4.61,1.8-9.42,2.73-14.31,3.33
			c-2.41,0.29-4.83,0.49-7.25,0.55c-0.41,0.01-0.61,0.14-0.84,0.51c-1.02,1.64-0.99,3.55-1.44,5.34c-0.33,1.31-0.55,2.66-0.83,3.99
			c-0.25,1.19-0.98,2.01-1.98,2.65c-1.13,0.73-2.47,1.06-3.7,1.24c-1.39,0.21-2.93,0.3-4.36-0.17c-0.39-0.13-0.72-0.09-1.1,0.1
			c-0.48,0.26-1.01,0.39-1.29-0.32c-0.06-0.17-0.16-0.2-0.31-0.12c-0.64,0.35-0.64-0.11-0.61-0.52c0.11-1.39,0.68-2.56,1.7-3.53
			c0.83-0.78,1.71-1.51,2.72-2.03c1.04-0.54,1.7-1.39,2.25-2.38c1.3-2.34,2.02-4.89,2.72-7.44c0.02-0.09,0.06-0.18,0.05-0.27
			c-0.27-3.38,0.82-6.53,1.68-9.7c0.67-2.47,1.14-4.99,1.62-7.5c0.54-2.87,1-5.76,1.29-8.67c0.14-1.37,0.25-2.75,0.37-4.13
			c0.02-0.23,0-0.44-0.19-0.62C72.85,94.11,70.78,92.19,68.57,90.14z M81.81,109.7c-0.09,0.26-0.14,0.38-0.18,0.5
			c-0.52,1.85-1.04,3.7-1.55,5.55c-0.66,2.37-1.33,4.74-1.98,7.12c-0.08,0.28-0.26,0.6,0.31,0.66c1.57,0.18,3.14,0.31,4.73,0.22
			c2.38-0.14,4.74-0.36,7-1.15c1.34-0.47,1.8-1.47,1.23-2.78c-0.71-1.65-1.91-2.91-3.44-3.82c-1.28-0.76-2.41-1.67-3.42-2.75
			C83.53,112.2,82.72,111.01,81.81,109.7z"/>
	</g>
</g>
<text transform="matrix(1 0 0 1 4.3134 80.2431)"><tspan x="0" y="0" class="st3 st4 st5">        </tspan><tspan x="24" y="0" class="st6 st4 st7">Caring for your </tspan><tspan x="0" y="21.6" class="st6 st4 st7 st8">		</tspan><tspan x="72" y="21.6" class="st6 st4 st7">  dog</tspan></text>
<path id="SVGID_x5F_00000116232975331433511290000008858842280045811584_x5F_" class="st0" d="M131.76,108.53
	c0,43.21-35.03,78.25-78.25,78.25s-78.25-35.03-78.25-78.25s35.03-78.25,78.25-78.25S131.76,65.31,131.76,108.53z"/>
<text><textPath  xlink:href="#SVGID_x5F_00000116232975331433511290000008858842280045811584_x5F_" startOffset="79.3945%">
</textPath>
</text>
</svg>
