<?xml version="1.0" encoding="utf-8"?>
<!-- Generator: Adobe Illustrator 25.4.1, SVG Export Plug-In . SVG Version: 6.00 Build 0)  -->
<svg version="1.1" id="Layer_1" xmlns="http://www.w3.org/2000/svg" xmlns:xlink="http://www.w3.org/1999/xlink" x="0px" y="0px"
	 viewBox="0 0 199 198" style="enable-background:new 0 0 199 198;" xml:space="preserve">
<style type="text/css">
	.st0{fill:#E6E7E8;}
	.st1{fill:none;stroke:#58595B;stroke-miterlimit:10;}
	.st2{fill:#DCECCB;stroke:#6D6E71;stroke-width:2;stroke-miterlimit:10;}
	.st3{fill:none;stroke:#6D6E71;stroke-width:2;stroke-miterlimit:10;}
</style>
<circle class="st0" cx="104.29" cy="101.68" r="94.21"/>
<circle class="st1" cx="104.29" cy="103.68" r="94.21"/>
<circle class="st2" cx="95.11" cy="95.88" r="94.21"/>
<circle class="st3" cx="95.11" cy="95.88" r="94.21"/>
<polygon class="st0" points="181.96,56.37 183.48,60.03 185.92,58.2 185.16,56.37 "/>
<polygon class="st0" points="262.87,198.4 264.39,202.06 266.84,200.23 266.07,198.4 "/>
<g>
	<g>
		<path d="M29.26,93.94c3.9,0.04,7.8,0.1,11.71,0.1c21.74,0.01,43.48-0.01,65.22,0.03c1.72,0,2.77-0.3,3.74-2.04
			c4.65-8.29,16.39-8.31,21.22-0.05c0.95,1.63,1.94,2.12,3.73,2.1c9.05-0.12,18.1-0.11,27.15-0.14c0,2.84,0,5.69,0,8.53
			c-9.4-0.03-18.81-0.05-28.21-0.12c-1.14-0.01-1.67,0.45-2.24,1.41c-5.43,9.22-16.65,9.2-22.03-0.08c-0.84-1.46-1.89-1.31-3.1-1.31
			c-18.55,0-37.09-0.01-55.64,0c-7.19,0.01-14.37,0.07-21.56,0.1C29.26,99.63,29.26,96.79,29.26,93.94z M120.65,94.01
			c-2.21-0.07-4.28,1.92-4.31,4.15c-0.03,2.11,1.83,4.11,3.95,4.24c2.22,0.15,4.3-1.75,4.4-4.02
			C124.79,96.12,122.91,94.09,120.65,94.01z"/>
		<path d="M162.02,60.89c-31.07,0-62.15,0.02-93.22-0.02c-1.9,0-3.06,0.34-4.15,2.24c-4.73,8.24-16.52,8.03-21.21-0.31
			c-0.81-1.44-1.61-2-3.25-1.95c-3.64,0.13-7.28,0.03-10.92,0.03c0-2.67,0-5.33,0-8c3.71-0.05,7.41-0.1,11.12-0.16
			c0.94-0.02,1.98,0.23,2.5-0.97c1.69-3.92,4.98-5.97,8.78-7.4c1.6,0,3.2,0,4.8,0c3.37,1.22,6.64,2.75,8.25,6.15
			c0.95,2,2.26,2.26,4.17,2.26c29.9-0.04,59.8-0.03,89.7-0.02c1.15,0,2.3,0.1,3.44,0.15C162.02,55.56,162.02,58.22,162.02,60.89z
			 M54.27,52.66c-2.26-0.06-4.11,1.64-4.23,3.88c-0.13,2.39,1.62,4.29,3.99,4.36c2.36,0.07,4.27-1.77,4.26-4.13
			C58.3,54.52,56.53,52.72,54.27,52.66z"/>
		<path d="M29.26,135.53c11.81,0,23.62-0.03,35.43,0.02c1.73,0.01,2.74-0.31,3.7-2.05c4.61-8.28,16.51-8.33,21.23-0.1
			c1.01,1.76,2.07,2.17,3.93,2.16c22.82-0.06,45.65-0.03,68.47-0.03c0,2.67,0,5.33,0,8c-1.06,0.05-2.12,0.15-3.18,0.15
			c-21.82,0.01-43.64,0-65.47,0.02c-1.07,0-2.4-0.5-3.04,0.95c-1.73,3.92-5.01,5.98-8.83,7.41c-1.6,0-3.2,0-4.8,0
			c-3.16-1.21-6.38-2.54-7.93-5.71c-1.15-2.35-2.66-2.72-5-2.71c-11.51,0.06-23.02-0.05-34.52-0.11
			C29.26,140.87,29.26,138.2,29.26,135.53z M79.16,143.77c2.36-0.07,4.12-2,3.99-4.38c-0.12-2.25-1.94-3.92-4.22-3.86
			c-2.35,0.05-4.12,1.99-3.99,4.36C75.06,142.15,76.9,143.84,79.16,143.77z"/>
	</g>
</g>
</svg>
