<?xml version="1.0" encoding="utf-8"?>
<!-- Generator: Adobe Illustrator 25.4.1, SVG Export Plug-In . SVG Version: 6.00 Build 0)  -->
<svg version="1.1" id="Layer_1" xmlns="http://www.w3.org/2000/svg" xmlns:xlink="http://www.w3.org/1999/xlink" x="0px" y="0px"
	 viewBox="0 0 199 198" style="enable-background:new 0 0 199 198;" xml:space="preserve">
<style type="text/css">
	.st0{fill:#E6E7E8;}
	.st1{fill:none;stroke:#58595B;stroke-miterlimit:10;}
	.st2{fill:#DCECCB;stroke:#6D6E71;stroke-width:2;stroke-miterlimit:10;}
	.st3{fill:none;stroke:#6D6E71;stroke-width:2;stroke-miterlimit:10;}
</style>
<circle class="st0" cx="104.69" cy="103.48" r="94.21"/>
<circle class="st1" cx="104.69" cy="105.48" r="94.21"/>
<circle class="st2" cx="95.52" cy="97.69" r="94.21"/>
<circle class="st3" cx="95.52" cy="97.69" r="94.21"/>
<polygon class="st0" points="182.36,58.17 183.89,61.83 186.33,60 185.57,58.17 "/>
<g>
	<g>
		<path d="M76.23,152.68c-9.85,0-19.7,0-29.55,0c-1.16,0-2.3-0.07-3.3-0.77c-1.4-0.98-2.03-2.67-1.61-4.33
			c0.42-1.65,1.76-2.82,3.5-3.02c0.45-0.05,0.9-0.03,1.35-0.03c18.43,0,36.86,0,55.29,0c1.94,0,1.94,0,1.94-1.98
			c0-1.35-0.02-2.71,0.01-4.06c0.04-1.38,0.77-2.15,1.99-2.18c1.24-0.03,2.07,0.81,2.1,2.21c0.04,1.64,0.04,3.28,0,4.93
			c-0.02,0.81,0.3,1.1,1.1,1.02c13.52-1.29,24.23-7.44,32-18.58c4.17-5.98,6.5-12.67,7.16-19.93c0.16-1.75,0.06-1.79-1.71-1.8
			c-1.44-0.02-2.88,0.02-4.3-0.1c-1.32-0.1-2.11-1.03-2.05-2.16c0.07-1.18,0.89-1.93,2.25-1.96c1.52-0.04,3.04-0.06,4.56,0
			c1.03,0.04,1.39-0.34,1.31-1.36c-0.43-5.73-1.93-11.16-4.67-16.2c-6.71-12.35-17-19.83-30.86-22.35
			c-1.17-0.21-2.36-0.27-3.54-0.41c-0.89-0.11-1.28,0.23-1.25,1.16c0.05,1.52,0.03,3.04,0.01,4.56c-0.02,1.49-0.83,2.41-2.06,2.41
			c-1.24-0.01-2.02-0.91-2.04-2.41c-0.02-1.56-0.04-3.12,0.01-4.68c0.03-0.88-0.27-1.12-1.15-1.06c-7.11,0.51-13.65,2.7-19.65,6.54
			c-7.67,4.91-13.19,11.62-16.65,20.02c-0.11,0.27-0.21,0.53-0.3,0.81c-0.85,2.56-2.1,3.47-4.82,3.47c-6.2,0.01-12.4,0-18.59,0
			c-3.2,0-6.4,0.02-9.6-0.01c-1.94-0.02-3.44-1.1-3.98-2.75c-0.52-1.61,0.02-3.38,1.34-4.44c0.85-0.68,1.83-0.83,2.89-0.83
			c8.09,0.01,16.17-0.02,24.26,0.03c1.2,0.01,1.81-0.36,2.3-1.48c1.86-4.23,4.37-8.07,7.35-11.61c0.35-0.41,0.88-0.77,0.25-1.45
			c-0.56-0.6-0.95-0.3-1.47,0c-1.66,0.97-3.51,0.61-4.74-0.89c-1.26-1.52-1.28-3.35,0.07-4.81c1.51-1.62,3.08-3.18,4.69-4.71
			c1.35-1.29,3.21-1.35,4.62-0.27c1.64,1.25,2.09,3.06,1.18,4.79c-0.29,0.54-0.74,1-0.02,1.59c0.75,0.61,1.15-0.03,1.57-0.38
			c7.58-6.31,16.25-10.1,26.01-11.44c2.49-0.34,2.44-0.38,2.5-2.93c0.02-1.04-0.26-1.47-1.36-1.69c-2.57-0.52-3.77-2.41-3.6-5.33
			c0.14-2.39,1.63-4.08,4.1-4.28c3.19-0.27,6.4-0.26,9.59-0.01c2.52,0.19,4.09,1.97,4.2,4.36c0.14,2.94-1.12,4.8-3.8,5.32
			c-0.97,0.19-1.15,0.62-1.15,1.48c0,2.81-0.02,2.8,2.79,3.17c9.56,1.28,18.03,5.06,25.46,11.19c0.16,0.13,0.32,0.26,0.47,0.4
			c0.44,0.38,0.83,0.6,1.38,0.1c0.56-0.51,0.34-0.89,0.02-1.38c-0.86-1.32-0.8-2.66,0.1-3.91c0.96-1.32,2.22-2.06,3.93-1.68
			c0.58,0.13,1.09,0.38,1.51,0.79c1.66,1.64,3.36,3.25,4.95,4.97c1.22,1.31,1.16,3.16,0.06,4.5c-1.37,1.66-3.06,2.02-4.8,1.06
			c-0.36-0.2-0.66-0.66-1.19-0.26c-0.67,0.51-0.67,0.97-0.12,1.62c2.77,3.27,5.21,6.79,6.97,10.7c8.1,18.02,6.77,35.34-4.56,51.57
			c-7.83,11.22-18.84,17.81-32.27,20.35c-3.03,0.57-6.11,0.78-9.18,0.79C95.69,152.7,85.96,152.68,76.23,152.68z"/>
		<path d="M40.92,121.5c-5.66,0-11.32,0.01-16.98-0.01c-1.66,0-2.92-0.7-3.65-2.25c-0.72-1.52-0.5-2.95,0.48-4.28
			c0.77-1.04,1.88-1.47,3.11-1.47c10.66-0.02,21.32-0.01,31.99-0.02c0.74,0,1.14,0.28,1.31,1c0.47,2,1.11,3.95,1.89,5.85
			c0.41,1.01-0.01,1.2-0.92,1.2C52.4,121.49,46.66,121.5,40.92,121.5z"/>
		<path d="M91.37,91.59c0.68,0.03,1.14,0.28,1.61,0.55c3.69,2.13,7.4,4.24,11.08,6.4c0.79,0.46,1.19,0.49,1.7-0.41
			c3.25-5.75,6.56-11.46,9.85-17.18c0.25-0.43,0.5-0.85,0.8-1.24c0.76-0.97,1.74-1.19,2.71-0.62c0.99,0.57,1.37,1.66,0.79,2.76
			c-0.99,1.89-2.08,3.72-3.14,5.57c-2.87,4.97-5.75,9.93-8.62,14.9c-1.15,1.98-2.04,2.22-4,1.08c-4.41-2.54-8.82-5.06-13.22-7.61
			c-1.56-0.9-1.94-2.26-1.01-3.45C90.3,91.82,90.84,91.61,91.37,91.59z"/>
		<path d="M60.64,137.02c-2.38,0-4.76,0.01-7.14,0c-2.49-0.02-4.25-1.67-4.27-3.97c-0.01-2.26,1.78-4.02,4.22-4.05
			c2.99-0.03,5.99,0.01,8.98-0.02c0.74-0.01,1.21,0.26,1.63,0.87c1.45,2.14,2.99,4.21,4.78,6.09c0.22,0.23,0.57,0.45,0.42,0.82
			c-0.15,0.38-0.57,0.25-0.87,0.25C65.81,137.03,63.22,137.02,60.64,137.02z"/>
		<path d="M50.44,105.96c-1.31,0-2.63,0.03-3.94-0.01c-2.41-0.07-4.01-1.73-3.98-4.09c0.03-2.26,1.67-3.89,4.02-3.92
			c2.63-0.03,5.25,0.02,7.88-0.02c0.93-0.01,1.34,0.28,1.3,1.27c-0.06,1.84-0.06,3.69-0.01,5.54c0.02,0.91-0.31,1.26-1.21,1.24
			C53.15,105.94,51.8,105.96,50.44,105.96z"/>
		<path d="M66.77,104.11c-0.86,0-1.72-0.03-2.58,0.01c-0.77,0.04-1.1-0.27-1.17-1.05c-0.27-3.03-0.19-3.14,2.77-3.14
			c1.19,0,2.38-0.02,3.57,0.01c1.38,0.04,2.28,0.88,2.27,2.08c-0.01,1.17-0.83,1.97-2.15,2.07c-0.45,0.03-0.9-0.03-1.35-0.04
			c-0.45-0.01-0.9,0-1.35,0C66.77,104.06,66.77,104.08,66.77,104.11z"/>
		<path d="M76.1,83.83c0,0.88-0.74,1.63-1.63,1.66c-0.91,0.03-1.72-0.75-1.75-1.68c-0.02-0.94,0.75-1.65,1.75-1.63
			C75.39,82.21,76.1,82.93,76.1,83.83z"/>
		<path d="M87.73,131.8c0.85,0.01,1.64,0.79,1.67,1.64c0.02,0.89-0.81,1.73-1.71,1.72c-0.87-0.01-1.63-0.77-1.66-1.64
			C86.01,132.61,86.81,131.79,87.73,131.8z"/>
		<path d="M74.41,118.5c0.86,0,1.65,0.78,1.68,1.65c0.02,0.91-0.83,1.74-1.74,1.71c-0.9-0.04-1.61-0.8-1.59-1.71
			C72.78,119.25,73.53,118.5,74.41,118.5z"/>
		<path d="M138.99,120.2c0,0.95-0.69,1.67-1.6,1.66c-0.92-0.01-1.66-0.72-1.7-1.61c-0.04-0.94,0.75-1.74,1.7-1.72
			C138.32,118.54,138.99,119.24,138.99,120.2z"/>
		<path d="M125.69,133.44c0.02,0.92-0.66,1.69-1.53,1.73c-0.91,0.04-1.75-0.74-1.77-1.64c-0.02-0.91,0.77-1.72,1.69-1.73
			C124.94,131.78,125.67,132.52,125.69,133.44z"/>
		<path d="M87.6,72.19c-0.88-0.07-1.6-0.88-1.55-1.75c0.05-0.96,0.89-1.67,1.85-1.54c0.94,0.13,1.47,0.7,1.48,1.66
			C89.39,71.51,88.53,72.26,87.6,72.19z"/>
		<path d="M137.34,85.5c-0.9-0.02-1.64-0.78-1.64-1.66c0-0.95,0.79-1.7,1.75-1.65c0.95,0.05,1.58,0.73,1.55,1.69
			C138.97,84.8,138.23,85.52,137.34,85.5z"/>
		<path d="M125.69,70.49c0.02,0.92-0.67,1.67-1.56,1.7c-0.95,0.03-1.75-0.75-1.73-1.68c0.01-0.9,0.75-1.63,1.65-1.63
			C124.97,68.88,125.67,69.56,125.69,70.49z"/>
	</g>
</g>
</svg>
