<?xml version="1.0" encoding="utf-8"?>
<!-- Generator: Adobe Illustrator 25.4.1, SVG Export Plug-In . SVG Version: 6.00 Build 0)  -->
<svg version="1.1" id="Layer_1" xmlns="http://www.w3.org/2000/svg" xmlns:xlink="http://www.w3.org/1999/xlink" x="0px" y="0px"
	 viewBox="0 0 160 160" style="enable-background:new 0 0 160 160;" xml:space="preserve">
<style type="text/css">
	.st0{fill:none;stroke:#000000;stroke-width:12;stroke-miterlimit:10;}
</style>
<line class="st0" x1="29.54" y1="45.39" x2="78.33" y2="107.37"/>
<line class="st0" x1="73.87" y1="108.02" x2="124.9" y2="46.74"/>
<g>
	<g>
		<path d="M76.03,111.79c3.22,0,3.22-5,0-5C72.82,106.79,72.81,111.79,76.03,111.79L76.03,111.79z"/>
	</g>
</g>
<g>
	<g>
		<path d="M76.19,112.55c3.22,0,3.22-5,0-5C72.97,107.55,72.96,112.55,76.19,112.55L76.19,112.55z"/>
	</g>
</g>
<g>
	<g>
		<path d="M75.58,111.94c0.05,0,0.1,0,0.15,0c0.34,0.01,0.67-0.06,0.96-0.22c0.31-0.1,0.58-0.27,0.8-0.52
			c0.24-0.23,0.42-0.49,0.52-0.8c0.16-0.3,0.23-0.62,0.22-0.96c-0.03-0.22-0.06-0.44-0.09-0.66c-0.12-0.42-0.33-0.79-0.64-1.1
			c-0.17-0.13-0.34-0.26-0.51-0.39c-0.39-0.23-0.81-0.34-1.26-0.34c-0.05,0-0.1,0-0.15,0c-0.34-0.01-0.67,0.06-0.96,0.22
			c-0.31,0.1-0.58,0.27-0.8,0.52c-0.24,0.23-0.42,0.49-0.52,0.8c-0.16,0.3-0.23,0.62-0.22,0.96c0.03,0.22,0.06,0.44,0.09,0.66
			c0.12,0.42,0.33,0.79,0.64,1.1c0.17,0.13,0.34,0.26,0.51,0.39C74.7,111.83,75.12,111.94,75.58,111.94L75.58,111.94z"/>
	</g>
</g>
<g>
	<g>
		<path d="M76.03,112.47c3.22,0,3.22-5,0-5C72.82,107.47,72.81,112.47,76.03,112.47L76.03,112.47z"/>
	</g>
</g>
<g>
	<g>
		<path d="M75.81,112.25c3.22,0,3.22-5,0-5C72.59,107.25,72.58,112.25,75.81,112.25L75.81,112.25z"/>
	</g>
</g>
<g>
	<g>
		<path d="M75.73,112.17c3.22,0,3.22-5,0-5C72.51,107.17,72.51,112.17,75.73,112.17L75.73,112.17z"/>
	</g>
</g>
<g>
	<g>
		<path d="M76.34,112.63c3.22,0,3.22-5,0-5C73.12,107.63,73.12,112.63,76.34,112.63L76.34,112.63z"/>
	</g>
</g>
<g>
	<g>
		<path d="M76.8,112.55c3.22,0,3.22-5,0-5C73.58,107.55,73.57,112.55,76.8,112.55L76.8,112.55z"/>
	</g>
</g>
</svg>
