<?xml version="1.0" encoding="utf-8"?>
<!-- Generator: Adobe Illustrator 25.4.1, SVG Export Plug-In . SVG Version: 6.00 Build 0)  -->
<svg version="1.1" id="Layer_1" xmlns="http://www.w3.org/2000/svg" xmlns:xlink="http://www.w3.org/1999/xlink" x="0px" y="0px"
	 viewBox="0 0 160 160" style="enable-background:new 0 0 160 160;" xml:space="preserve">
<style type="text/css">
	.st0{fill:none;stroke:#000000;stroke-width:12;stroke-miterlimit:10;}
</style>
<line class="st0" x1="29.5" y1="45.4" x2="78.3" y2="107.4"/>
<line class="st0" x1="73.9" y1="108" x2="124.9" y2="46.7"/>
<g>
	<g>
		<path d="M76,111.8c3.2,0,3.2-5,0-5C72.8,106.8,72.8,111.8,76,111.8L76,111.8z"/>
	</g>
</g>
<g>
	<g>
		<path d="M76.2,112.6c3.2,0,3.2-5,0-5S73,112.6,76.2,112.6L76.2,112.6z"/>
	</g>
</g>
<g>
	<g>
		<path d="M75.6,111.9c0.1,0,0.1,0,0.2,0c0.3,0,0.7-0.1,1-0.2c0.3-0.1,0.6-0.3,0.8-0.5c0.2-0.2,0.4-0.5,0.5-0.8
			c0.2-0.3,0.2-0.6,0.2-1c0-0.2-0.1-0.4-0.1-0.7c-0.1-0.4-0.3-0.8-0.6-1.1c-0.2-0.1-0.3-0.3-0.5-0.4c-0.4-0.2-0.8-0.3-1.3-0.3
			c-0.1,0-0.1,0-0.2,0c-0.3,0-0.7,0.1-1,0.2c-0.3,0.1-0.6,0.3-0.8,0.5c-0.2,0.2-0.4,0.5-0.5,0.8c-0.2,0.3-0.2,0.6-0.2,1
			c0,0.2,0.1,0.4,0.1,0.7c0.1,0.4,0.3,0.8,0.6,1.1c0.2,0.1,0.3,0.3,0.5,0.4C74.7,111.8,75.1,111.9,75.6,111.9L75.6,111.9z"/>
	</g>
</g>
<g>
	<g>
		<path d="M76,112.5c3.2,0,3.2-5,0-5C72.8,107.5,72.8,112.5,76,112.5L76,112.5z"/>
	</g>
</g>
<g>
	<g>
		<path d="M75.8,112.2c3.2,0,3.2-5,0-5S72.6,112.2,75.8,112.2L75.8,112.2z"/>
	</g>
</g>
<g>
	<g>
		<path d="M75.7,112.2c3.2,0,3.2-5,0-5S72.5,112.2,75.7,112.2L75.7,112.2z"/>
	</g>
</g>
<g>
	<g>
		<path d="M76.3,112.6c3.2,0,3.2-5,0-5C73.1,107.6,73.1,112.6,76.3,112.6L76.3,112.6z"/>
	</g>
</g>
<g>
	<g>
		<path d="M76.8,112.6c3.2,0,3.2-5,0-5S73.6,112.6,76.8,112.6L76.8,112.6z"/>
	</g>
</g>
</svg>
