<?xml version="1.0" encoding="utf-8"?>
<!-- Generator: Adobe Illustrator 25.4.1, SVG Export Plug-In . SVG Version: 6.00 Build 0)  -->
<svg version="1.1" id="Layer_1" xmlns="http://www.w3.org/2000/svg" xmlns:xlink="http://www.w3.org/1999/xlink" x="0px" y="0px"
	 viewBox="0 0 160 160" style="enable-background:new 0 0 160 160;" xml:space="preserve">
<style type="text/css">
	.st0{fill:none;stroke:#000000;stroke-width:12;stroke-miterlimit:10;}
</style>
<line class="st0" x1="110.8" y1="31.3" x2="48.9" y2="80.1"/>
<line class="st0" x1="48.2" y1="75.7" x2="109.5" y2="126.7"/>
<g>
	<g>
		<path d="M44.4,77.8c0,3.2,5,3.2,5,0C49.4,74.6,44.4,74.6,44.4,77.8L44.4,77.8z"/>
	</g>
</g>
<g>
	<g>
		<path d="M43.7,78c0,3.2,5,3.2,5,0S43.7,74.8,43.7,78L43.7,78z"/>
	</g>
</g>
<g>
	<g>
		<path d="M44.3,77.4c0,0.1,0,0.1,0,0.2c0,0.3,0.1,0.7,0.2,1c0.1,0.3,0.3,0.6,0.5,0.8c0.2,0.2,0.5,0.4,0.8,0.5
			c0.3,0.2,0.6,0.2,1,0.2c0.2,0,0.4-0.1,0.7-0.1c0.4-0.1,0.8-0.3,1.1-0.6c0.1-0.2,0.3-0.3,0.4-0.5c0.2-0.4,0.3-0.8,0.3-1.3
			c0-0.1,0-0.1,0-0.2c0-0.3-0.1-0.7-0.2-1c-0.1-0.3-0.3-0.6-0.5-0.8c-0.2-0.2-0.5-0.4-0.8-0.5c-0.3-0.2-0.6-0.2-1-0.2
			c-0.2,0-0.4,0.1-0.7,0.1c-0.4,0.1-0.8,0.3-1.1,0.6c-0.1,0.2-0.3,0.3-0.4,0.5C44.4,76.5,44.3,76.9,44.3,77.4L44.3,77.4z"/>
	</g>
</g>
<g>
	<g>
		<path d="M43.8,77.8c0,3.2,5,3.2,5,0C48.8,74.6,43.8,74.6,43.8,77.8L43.8,77.8z"/>
	</g>
</g>
<g>
	<g>
		<path d="M44,77.6c0,3.2,5,3.2,5,0S44,74.4,44,77.6L44,77.6z"/>
	</g>
</g>
<g>
	<g>
		<path d="M44.1,77.5c0,3.2,5,3.2,5,0S44.1,74.3,44.1,77.5L44.1,77.5z"/>
	</g>
</g>
<g>
	<g>
		<path d="M43.6,78.1c0,3.2,5,3.2,5,0C48.6,74.9,43.6,74.9,43.6,78.1L43.6,78.1z"/>
	</g>
</g>
<g>
	<g>
		<path d="M43.7,78.6c0,3.2,5,3.2,5,0S43.7,75.4,43.7,78.6L43.7,78.6z"/>
	</g>
</g>
</svg>
