<?xml version="1.0" encoding="utf-8"?>
<!-- Generator: Adobe Illustrator 25.4.1, SVG Export Plug-In . SVG Version: 6.00 Build 0)  -->
<svg version="1.1" id="Layer_1" xmlns="http://www.w3.org/2000/svg" xmlns:xlink="http://www.w3.org/1999/xlink" x="0px" y="0px"
	 viewBox="0 0 612 792" style="enable-background:new 0 0 612 792;" xml:space="preserve">
<style type="text/css">
	.st0{fill:#616265;}
	.st1{fill:#9EA1A6;stroke:#D6D7B9;stroke-width:9;stroke-miterlimit:10;}
	.st2{fill:none;}
	.st3{fill:#5F6044;}
	.st4{font-family:'BerlinSansFBDemi-Bold';}
	.st5{font-size:52px;}
</style>
<rect x="-5.27" class="st0" width="623.59" height="799.85"/>
<ellipse class="st1" cx="304.73" cy="342.79" rx="241.46" ry="245.3"/>
<g>
	<g>
		<path d="M302.64,280.54c-0.92-0.7-1.31-1.71-1.8-2.64c-3-5.67-6.46-11.03-11.12-15.55c-8.49-8.23-18.67-13.06-30.5-14.48
			c-11.83-1.42-22.93,0.64-33.1,6.89c-7.01,4.32-11.93,10.52-15.93,17.48c-7.26,12.61-8.41,25.98-4.97,39.88
			c3.21,12.95,9.57,24.44,17.28,35.27c10.24,14.39,22.52,26.96,35.91,38.52c10.6,9.16,21.79,17.55,33.88,24.74
			c2.89,1.72,5.86,3.29,8.9,4.75c1.07,0.51,1.94,0.54,3.04,0.02c8.09-3.83,15.57-8.64,22.83-13.79
			c16.95-12.01,32.45-25.6,46.05-41.22c9.89-11.35,18.5-23.53,24.28-37.45c3.15-7.58,5.2-15.43,5.53-23.64
			c0.53-13.1-3.65-24.71-11.58-35.15c-7.8-10.28-18.33-16.01-31.1-17.7c-16.87-2.23-31.77,2.19-44.33,13.62
			c-4.92,4.47-8.56,9.88-11.31,15.87c-0.23,0.5-0.47,1-0.98,1.4c0.65-1.68,1.21-3.39,1.97-5.02c7.79-16.86,21.27-26.72,39.53-30.29
			c13.59-2.66,26.62-0.7,38.73,6.13c7.74,4.36,13.53,10.69,18.37,17.93c7.69,11.49,10.95,24.15,10.05,37.82
			c-0.85,12.95-5.13,24.92-11.17,36.34c-6.31,11.94-14.27,22.76-23.25,32.87c-15.49,17.45-33.06,32.59-52.73,45.35
			c-6.71,4.36-13.63,8.38-21.3,10.95c-0.76,0.26-1.41,0.26-2.18,0c-8.91-3.02-16.82-7.85-24.51-13.04
			c-22.38-15.09-42.26-32.85-58.83-54.03c-9.51-12.15-17.41-25.2-22.21-39.89c-2.89-8.85-4.38-17.91-3.81-27.2
			c0.77-12.52,5.22-23.7,12.78-33.79c8.52-11.37,19.7-18.73,33.88-20.98c22.26-3.54,41.17,2.6,55.58,20.13
			c4.23,5.14,7,11.1,8.24,17.67C302.89,279.03,303.23,279.77,302.64,280.54z"/>
	</g>
</g>
<g>
	<g>
		<path d="M264.42,357.62c-5.13,0.14-9.64-0.15-13.98-1.59c-8.79-2.91-16.42-7.51-20.01-17.04c-3.79-10.06-2.24-19.46,4.85-27.29
			c6.96-7.68,15.58-9.68,25.2-6.23c3.08,1.1,4.53,2.98,4.18,5.35c-0.42,2.79-2.13,3.92-4.77,4.39c-6.89,1.24-11.75,7.18-12.12,14.37
			c-0.35,6.92,3.97,13.16,10.56,15.44c18.99,6.55,36.8-5.85,44.02-20.11c2.68-5.28,3.24-5.55,8.83-3.83
			c8.53,2.62,17.02,5.37,25.55,7.95c3.63,1.1,5.64,3.29,6.34,7.33c2.77,15.89,5.77,31.74,8.66,47.61c0.63,3.44-1.11,6.61-3.89,7.33
			c-2.88,0.75-5.37-1.1-6.32-4.85c-3.3-13.09-6.56-26.18-9.84-39.28c-0.05-0.18-0.06-0.37-0.1-0.55c-0.46-1.83-1.2-3.47-3.3-3.4
			c-1.93,0.06-2.66,1.58-3.06,3.34c-0.33,1.45-0.68,2.9-1.11,4.33c-0.76,2.53-2.52,3.9-4.96,3.93c-2.47,0.03-4.23-1.4-5.01-3.88
			c-0.67-2.12-1.19-4.3-1.7-6.48c-0.39-1.66-1.34-2.73-2.93-2.76c-1.72-0.03-2.67,1.07-3.11,2.86c-1.31,5.33-2.69,10.65-4.1,15.95
			c-1.39,5.23-4.59,7.76-9.69,7.88c-14.58,0.35-25.67,7.2-33.54,19.99c-1.97,3.2-4.44,3.53-6.88,0.73
			c-2.15-2.47-2.36-5.31-1.33-8.37C253.75,372.25,258.17,364.75,264.42,357.62z"/>
		<path d="M310.26,285.51c0-5.61,0.04-11.23-0.02-16.84c-0.03-2.72,1.01-4.59,3.57-5.12c2.45-0.51,4.08,0.84,4.98,3.2
			c1.26,3.29,2.62,6.54,3.69,9.9c0.96,3.02,2.67,4.41,5.74,4.2c3.02-0.21,6.05-0.28,9.07-0.22c5.28,0.1,8.2,2.65,9.27,8.13
			c0.36,1.82,1.27,2.57,2.92,2.56c2.05-0.01,4.09-0.07,6.14-0.08c4.25-0.03,6.46,2.17,6.42,6.69c-0.05,5.81-2.75,10.38-6.69,14.15
			c-8.82,8.43-24.64,10.73-35.33,5.18c-6.39-3.32-9.82-8.71-9.85-16.3c-0.02-5.15,0-10.29,0-15.44
			C310.2,285.51,310.23,285.51,310.26,285.51z M336.6,289.09c-2.09,0.13-3.26,1.36-3.22,3.4c0.04,2.05,1.37,3.35,3.31,3.27
			c1.77-0.07,2.99-1.23,3-3.26C339.69,290.35,338.52,289.29,336.6,289.09z"/>
		<path d="M314.98,364.12c-0.33,1.47-1.1,2.36-2.59,2.19c-1.33-0.15-2.11-1.08-2-2.44c0.12-1.47,1.03-2.31,2.52-2.16
			C314.31,361.84,314.81,362.85,314.98,364.12z"/>
		<path d="M326.46,361.68c1.49,0.08,2.22,0.99,2.23,2.35c0.01,1.39-0.78,2.32-2.17,2.3c-1.46-0.02-2.38-0.86-2.29-2.46
			C324.31,362.44,325.17,361.72,326.46,361.68z"/>
		<path d="M319.46,369.37c1.25,0.08,2.35,0.36,2.18,1.89c-0.15,1.36-0.87,2.75-2.26,2.63c-1.28-0.1-2.09-1.38-2.1-2.82
			C317.27,369.49,318.49,369.48,319.46,369.37z"/>
	</g>
</g>
<ellipse transform="matrix(0.5899 -0.8075 0.8075 0.5899 -4.0997 423.7982)" cx="415.16" cy="215.94" rx="27.91" ry="17.49"/>
<ellipse transform="matrix(0.8849 -0.4657 0.4657 0.8849 -73.9767 115.9205)" cx="197.59" cy="207.66" rx="17.53" ry="27.84"/>
<ellipse transform="matrix(0.9963 -0.0854 0.0854 0.9963 -15.2099 24.0709)" cx="273.78" cy="189.84" rx="17.59" ry="27.74"/>
<ellipse transform="matrix(0.2116 -0.9774 0.9774 0.2116 89.5621 492.3321)" cx="349.93" cy="190.65" rx="27.76" ry="17.58"/>
<rect x="135.07" y="439.53" class="st2" width="344.14" height="106.49"/>
<text transform="matrix(1 0 0 1 164.5166 476.1846)"><tspan x="0" y="0" class="st3 st4 st5">Hornsby Pet </tspan><tspan x="64.39" y="62.4" class="st3 st4 st5">Shelter</tspan></text>
</svg>
