<?xml version="1.0" encoding="utf-8"?>
<!-- Generator: Adobe Illustrator 25.4.1, SVG Export Plug-In . SVG Version: 6.00 Build 0)  -->
<svg version="1.1" id="Layer_1" xmlns="http://www.w3.org/2000/svg" xmlns:xlink="http://www.w3.org/1999/xlink" x="0px" y="0px"
	 viewBox="0 0 612 792" style="enable-background:new 0 0 612 792;" xml:space="preserve">
<style type="text/css">
	.st0{fill:#9EA1A6;stroke:#D6D7B9;stroke-width:9;stroke-miterlimit:10;}
	.st1{fill:none;}
	.st2{fill:#5F6044;}
	.st3{font-family:'BerlinSansFBDemi-Bold';}
	.st4{font-size:59px;}
</style>
<ellipse class="st0" cx="307.14" cy="342.79" rx="241.46" ry="245.3"/>
<g>
	<g>
		<path d="M310.25,266.76c-0.98-0.75-1.4-1.85-1.92-2.85c-3.19-6.13-6.86-11.93-11.81-16.81c-9.02-8.9-19.84-14.12-32.42-15.66
			c-12.57-1.54-24.37,0.69-35.17,7.45c-7.45,4.67-12.67,11.38-16.93,18.91c-7.71,13.64-8.94,28.1-5.28,43.12
			c3.41,14.01,10.17,26.43,18.36,38.14c10.89,15.56,23.93,29.15,38.16,41.66c11.27,9.9,23.16,18.98,36.01,26.75
			c3.07,1.86,6.23,3.56,9.45,5.13c1.14,0.55,2.07,0.59,3.24,0.03c8.6-4.14,16.54-9.35,24.26-14.91
			c18.01-12.99,34.49-27.68,48.95-44.56c10.51-12.27,19.66-25.44,25.8-40.5c3.34-8.2,5.53-16.68,5.88-25.56
			c0.57-14.16-3.88-26.72-12.31-38c-8.29-11.11-19.48-17.31-33.05-19.14c-17.93-2.41-33.76,2.37-47.11,14.72
			c-5.22,4.84-9.09,10.68-12.02,17.16c-0.25,0.54-0.5,1.08-1.04,1.52c0.69-1.81,1.29-3.67,2.09-5.43
			c8.28-18.23,22.61-28.89,42.01-32.75c14.45-2.87,28.29-0.76,41.16,6.63c8.23,4.72,14.38,11.56,19.53,19.38
			c8.18,12.43,11.64,26.11,10.69,40.9c-0.9,14-5.45,26.94-11.87,39.29c-6.71,12.91-15.17,24.61-24.71,35.54
			c-16.46,18.86-35.13,35.24-56.04,49.04c-7.14,4.71-14.48,9.06-22.64,11.84c-0.81,0.28-1.5,0.28-2.31,0
			c-9.46-3.26-17.88-8.49-26.05-14.1c-23.79-16.31-44.91-35.52-62.53-58.42c-10.11-13.13-18.5-27.24-23.6-43.13
			c-3.07-9.57-4.65-19.36-4.05-29.41c0.81-13.54,5.55-25.63,13.58-36.54c9.05-12.3,20.94-20.25,36.01-22.69
			c23.66-3.82,43.75,2.81,59.07,21.76c4.49,5.56,7.44,12.01,8.76,19.1C310.52,265.13,310.89,265.93,310.25,266.76z"/>
	</g>
</g>
<g>
	<g>
		<path d="M269.63,350.11c-5.45,0.15-10.25-0.17-14.86-1.72c-9.34-3.14-17.45-8.12-21.27-18.42c-4.03-10.88-2.38-21.04,5.16-29.51
			c7.4-8.3,16.56-10.46,26.78-6.74c3.28,1.19,4.82,3.22,4.44,5.78c-0.45,3.02-2.27,4.24-5.07,4.75
			c-7.32,1.34-12.49,7.76-12.88,15.54c-0.38,7.48,4.22,14.23,11.22,16.69c20.18,7.09,39.11-6.33,46.79-21.75
			c2.84-5.71,3.44-6,9.38-4.14c9.06,2.84,18.09,5.8,27.16,8.59c3.86,1.19,5.99,3.56,6.74,7.92c2.95,17.18,6.13,34.32,9.2,51.48
			c0.66,3.72-1.18,7.14-4.14,7.93c-3.06,0.81-5.71-1.19-6.71-5.25c-3.51-14.15-6.98-28.31-10.46-42.47c-0.05-0.2-0.06-0.4-0.11-0.6
			c-0.49-1.98-1.28-3.75-3.51-3.68c-2.05,0.07-2.82,1.71-3.25,3.62c-0.35,1.57-0.73,3.14-1.18,4.68c-0.8,2.74-2.68,4.22-5.27,4.25
			c-2.62,0.04-4.49-1.51-5.32-4.19c-0.71-2.3-1.26-4.65-1.8-7.01c-0.41-1.8-1.42-2.96-3.11-2.99c-1.83-0.03-2.84,1.16-3.3,3.1
			c-1.39,5.77-2.86,11.51-4.36,17.25c-1.47,5.66-4.87,8.39-10.3,8.52c-15.49,0.38-27.28,7.79-35.64,21.61
			c-2.09,3.46-4.72,3.82-7.31,0.79c-2.28-2.67-2.51-5.74-1.41-9.05C258.3,365.93,263,357.82,269.63,350.11z"/>
		<path d="M318.35,272.14c0-6.07,0.04-12.14-0.02-18.21c-0.03-2.94,1.07-4.97,3.79-5.54c2.61-0.55,4.34,0.91,5.3,3.46
			c1.34,3.56,2.78,7.08,3.92,10.71c1.02,3.26,2.84,4.77,6.1,4.54c3.21-0.23,6.43-0.3,9.64-0.24c5.61,0.1,8.71,2.86,9.85,8.79
			c0.38,1.97,1.35,2.78,3.1,2.77c2.18-0.02,4.35-0.08,6.53-0.09c4.52-0.03,6.86,2.34,6.83,7.24c-0.05,6.28-2.92,11.22-7.11,15.29
			c-9.38,9.12-26.19,11.6-37.55,5.6c-6.79-3.59-10.44-9.41-10.47-17.63c-0.02-5.56,0-11.13,0-16.69
			C318.29,272.14,318.32,272.14,318.35,272.14z M346.34,276.01c-2.22,0.14-3.46,1.48-3.42,3.67c0.04,2.22,1.46,3.62,3.52,3.54
			c1.88-0.07,3.18-1.33,3.19-3.53C349.63,277.37,348.39,276.23,346.34,276.01z"/>
		<path d="M323.37,357.14c-0.35,1.59-1.17,2.55-2.75,2.36c-1.42-0.17-2.24-1.16-2.12-2.63c0.13-1.59,1.09-2.5,2.68-2.34
			C322.66,354.67,323.19,355.76,323.37,357.14z"/>
		<path d="M335.57,354.49c1.59,0.08,2.36,1.07,2.37,2.54c0.01,1.5-0.83,2.51-2.31,2.49c-1.56-0.02-2.53-0.93-2.43-2.67
			C333.29,355.32,334.2,354.54,335.57,354.49z"/>
		<path d="M328.13,362.81c1.33,0.09,2.5,0.39,2.31,2.04c-0.16,1.47-0.92,2.97-2.4,2.85c-1.36-0.11-2.22-1.49-2.23-3.05
			C325.8,362.94,327.1,362.93,328.13,362.81z"/>
	</g>
</g>
<ellipse transform="matrix(0.5747 -0.8183 0.8183 0.5747 21.6527 435.4855)" cx="429.84" cy="196.91" rx="30" ry="18.69"/>
<ellipse transform="matrix(0.8923 -0.4514 0.4514 0.8923 -63.4632 109.9023)" cx="198.61" cy="187.96" rx="18.7" ry="30"/>
<ellipse transform="matrix(0.9966 -0.0821 0.0821 0.9966 -12.903 23.518)" cx="279.59" cy="168.69" rx="18.7" ry="29.99"/>
<ellipse transform="matrix(0.2037 -0.979 0.979 0.2037 121.0716 487.999)" cx="360.52" cy="169.57" rx="29.99" ry="18.7"/>
<rect x="140.41" y="439.53" class="st1" width="344.14" height="123.58"/>
<text transform="matrix(1 0 0 1 150.6554 481.1191)"><tspan x="0" y="0" class="st2 st3 st4">Hornsby Pet </tspan><tspan x="73.06" y="70.8" class="st2 st3 st4">Shelter</tspan></text>
</svg>
