<?xml version="1.0" encoding="utf-8"?>
<!-- Generator: Adobe Illustrator 25.4.1, SVG Export Plug-In . SVG Version: 6.00 Build 0)  -->
<svg version="1.1" id="Layer_1" xmlns="http://www.w3.org/2000/svg" xmlns:xlink="http://www.w3.org/1999/xlink" x="0px" y="0px"
	 viewBox="0 0 165 160" style="enable-background:new 0 0 165 160;" xml:space="preserve">
<style type="text/css">
	.st0{fill:#86888A;stroke:#E4E5E6;stroke-width:3;stroke-miterlimit:10;}
	.st1{fill:#82C566;}
	.st2{font-family:'BerlinSansFBDemi-Bold';}
	.st3{font-size:12px;}
	.st4{fill:#C9CACC;}
	.st5{font-size:20px;}
	.st6{fill:none;}
	.st7{font-family:'ArialMT';}
</style>
<circle class="st0" cx="81.9" cy="80.1" r="78.2"/>
<g>
	<g>
		<path d="M116.3,42c-0.1,1,0.2,1.9,0.3,2.9c0.2,1.5-0.1,2.9-0.7,4.2c-0.4,0.9-0.9,1.8-1.3,2.6c-0.1,0.3-0.3,0.6-0.4,0.9
			c-0.3,0.7-0.4,1.4-0.1,2.2c0.2,0.5,0.2,1.1-0.2,1.6c-0.3,0.6-0.3,1.1-0.2,1.7c0.3,1.1,0.9,2.2,1.6,3.2c1.5,2.2,3.1,4.3,4.7,6.5
			c1,1.4,1.7,2.9,2,4.5c0.2,0.9-0.1,1.7-0.2,2.6c-0.4,1.8-0.6,3.7-0.9,5.5c-0.3,1.9-0.5,3.9-0.8,5.8c-0.2,1.7-0.4,3.3-0.6,5
			c-0.2,1.9-0.4,3.9-0.6,5.8c-0.2,2-0.3,4-0.4,6.1c-0.2,3.4-0.2,6.7-0.4,10.1c-0.2,2.4-0.5,4.9-1,7.3c-0.4,1.8-0.5,3.7,0,5.5
			c0.2,0.7,0.5,1.2,1.2,1.5c0.8,0.4,1.6,0.8,2.3,1.3c1.4,0.9,1.7,2,1,3.4c-0.4,0.8-0.9,1.5-1.5,2.2c-0.7,0.9-1.7,0.9-2.7,0.7
			c-1.3-0.2-2.4-0.8-3.4-1.5c-0.3-0.2-0.5-0.2-0.8,0.1c-0.4,0.5-0.9,0.9-1.3,1.4c-1.4,1.6-3.2,2-5.4,1.8c-1.1-0.1-2.3-0.3-3.4-0.3
			c-0.7,0-1.4,0.1-2.1,0.4c-0.2,0.1-0.5,0.2-0.7,0.3c-0.8,0.3-1.6,0.4-2.4,0.2c-1.6-0.3-3.2-0.1-4.8,0.1c-1.9,0.3-3.7,0.8-5.6,1
			c-0.7,0.1-1.4,0.1-2.1,0.1c-1-0.1-1.8-0.6-2.4-1.3c-0.2-0.2-0.2-0.2-0.5-0.1c-2.1,1-4.3,1.6-6.6,1.9c-1.9,0.2-3.8,0.2-5.7-0.2
			c-1.2-0.3-2.3-0.8-3.2-1.6c-0.2-0.2-0.3-0.1-0.5,0c-3.6,1.5-7.4,2.6-11.3,3.4c-4,0.8-8,1.2-12,1.1c-2.1-0.1-4.1-0.3-6.2-0.7
			c-0.5-0.1-1-0.3-1.4-0.6c-0.3-0.2-0.5-0.5-0.7-0.8c-0.3-0.7-0.3-0.7,0.4-0.9c1.8-0.6,3.6-1,5.4-1.2c4.4-0.5,8.6-1.6,12.7-3.3
			c1.3-0.5,2.6-1,3.9-1.4c0.2-0.1,0.3-0.1,0.1-0.3c-1.7-2.4-2.5-5.1-2.9-7.8c-0.4-2.6-0.5-5.2-0.3-7.8c0.4-4.9,1.4-9.8,3.7-14.3
			c0.8-1.6,1.8-3.1,3.3-4.3c2.6-2.2,4.1-5,5.5-7.9c1.4-3,2.6-6,4.1-8.9c1.6-3.1,3.3-6.1,5.6-8.8c0.8-0.9,1.6-1.8,2.3-2.8
			c1-1.2,1.4-2.6,1.5-4.1c0.3-3.4,1.6-6.6,3.9-9.4c0.4-0.5,0.9-0.9,1.4-1.3c1.1-0.8,1.3-1.8,1.2-3c-0.2-1.8-1-3.5-1.7-5.1
			c-0.5-1.3-1.1-2.7-1.4-4.1C84,42.3,84,41.7,84,41.2c0.1-0.8,0-1.6,0.1-2.3c0-0.2-0.1-0.4-0.2-0.5c-0.4-0.4-1-0.7-1.5-1.1
			c-0.9-0.6-1.6-1.2-1.8-2.2c-0.1-0.2-0.2-0.1-0.3-0.1c-0.9,0-1.8-0.1-2.7-0.4c-0.2-0.1-0.3-0.2-0.3-0.4c0-0.6,0.4-1,0.8-1.3
			c1.3-1,2.7-2,4.1-2.9c1.2-0.8,2.4-1.6,3.4-2.6c0.8-0.8,1.7-0.9,2.8-0.6c0.2,0.1,0.5,0.1,0.7,0.2c1.1,0.5,2.2,0.4,3.4,0
			c0.5-0.2,1-0.3,1.4-0.5c1.9-0.7,3.8-0.9,5.8-0.3c1.3,0.4,2.5,0.1,3.6-0.7c0.6-0.5,1.3-0.9,1.7-1.5c1.2-1.6,2.9-1.8,4.7-1.4
			c2.2,0.5,3.7,1.8,4.7,3.6c0.1,0.2,0.2,0.3,0.5,0.4c0.8,0.2,1.5,0.5,2.3,0.6c0.1,0,0.2,0.1,0.3,0.1c1.4,1.4,2.9,2.7,4.2,4.2
			c0.9,1,1.8,2,2.6,3.1c0.7,0.9,1.2,1.8,1.2,2.9c0,0.7,0,0.7-0.7,0.6c-0.8-0.1-1.5-0.4-2.2-0.9c-0.3-0.2-0.7-0.5-1-0.7
			c-0.1-0.1-0.2-0.1-0.4,0c-0.7,0.9-1.7,1.6-2.7,2.2c-0.3,0.2-0.5,0.4-0.8,0.5c-1,0.4-1.2,1.2-1.2,2C116.3,41.5,116.3,41.7,116.3,42
			z M94.3,130.9c1,0.1,1.9,0.1,2.8,0c1.6-0.2,3.2-0.6,4.8-1c1.8-0.5,3.7-0.9,5.6-0.8c1,0.1,1.9,0.2,2.8,0.8c0.2,0.2,0.5,0.3,0.8,0.4
			c0.4,0.2,0.6,0.1,0.6-0.4c0-0.4-0.2-0.8-0.5-1.1c-0.3-0.3-0.7-0.6-1-0.9c-0.8-0.6-1.1-1.4-1.1-2.3c0-1.9,0.3-3.7,0.5-5.6
			c0.4-3.3,0.9-6.5,1-9.8c0.1-2.1,0-4.1-0.5-6.1c-0.2-0.8-0.4-1.6-0.9-2.3c-0.7,1.3-1.8,2.2-2.7,3.2c-0.5,0.5-0.9,1-1.2,1.6
			c-0.1,0.2-0.1,0.3,0.2,0.3c2,0.1,3.4,1.3,3.7,3c0.3,2.2,0.2,4.4-0.6,6.6c-1.9,5.6-5.7,9.9-11.2,13C96.4,130,95.4,130.5,94.3,130.9
			z"/>
	</g>
</g>
<text transform="matrix(1 0 0 1 -5.0656 87.0755)" class="st1 st2 st3">        </text>
<text transform="matrix(1 0 0 1 18.9344 87.0755)" class="st4 st2 st5">Being prepared</text>
<path id="SVGID_x5F_1_x5F_" class="st6" d="M130.4,108.4c0,43.2-35,78.2-78.2,78.2s-78.2-35-78.2-78.2s35-78.2,78.2-78.2
	S130.4,65.2,130.4,108.4z"/>
<text transform="matrix(0.9562 0.2928 -0.2928 0.9562 73.47 33.0375)" class="st7 st3"> </text>
<text class="st7 st3"> </text>
</svg>
