<?xml version="1.0" encoding="utf-8"?>
<!-- Generator: Adobe Illustrator 25.4.1, SVG Export Plug-In . SVG Version: 6.00 Build 0)  -->
<svg version="1.1" id="Layer_1" xmlns="http://www.w3.org/2000/svg" xmlns:xlink="http://www.w3.org/1999/xlink" x="0px" y="0px"
	 viewBox="0 0 165 160" style="enable-background:new 0 0 165 160;" xml:space="preserve">
<style type="text/css">
	.st0{fill:#636466;stroke:#E4E5E6;stroke-width:3;stroke-miterlimit:10;}
	.st1{fill:#82C566;}
	.st2{font-family:'BerlinSansFBDemi-Bold';}
	.st3{font-size:12px;}
	.st4{fill:#C9CACC;}
	.st5{font-size:18px;}
	.st6{fill:none;}
</style>
<circle class="st0" cx="82.87" cy="79.73" r="78.25"/>
<g>
	<g>
		<path d="M86.27,119.52c-2.8,0-5.45,0-8.11,0c-0.75,0-1.47,0.09-2.2,0.28c-1.89,0.48-2.4,1.2-2.26,3.34
			c0.1,1.57,1.03,2.07,2.68,2.54c2.16,0.62,4.12-0.13,6.16-0.37c3.32-0.4,6.47,0.96,9.71,1.23c4.79,0.39,9.48-0.41,14.02-2.12
			c1.32-0.5,1.67-1.51,1.17-3.03c-0.28-0.86-0.7-1.66-1.09-2.48c-0.5-1.05-0.84-2.13-0.75-3.33c0.02-0.32-0.11-0.72,0.24-0.91
			c0.33-0.18,0.59,0.09,0.81,0.31c0.9,0.91,1.78,1.86,2.7,2.75c4.47,4.35,9.55,5.82,15.31,3.93c2.8-0.92,5.5-1.1,7.92,1.15
			c0.75,0.7,1.42,1.45,1.28,2.69c-0.11,0.92,0.49,0.94,1.02,0.8c2.41-0.63,4.66-1.66,6.39-3.72c1.42-1.68,1.3-3.39-0.29-4.91
			c-1.56-1.5-3.49-2.17-5.4-2.83c-5.54-1.92-11.22-3.2-16.85-4.72c-3.61-0.97-6.98-2.43-9.64-5.48c-2.21-2.53-3.51-5.62-4.55-8.88
			c-1.55-4.88-3.12-9.71-5.56-14.2C94.83,73.91,89.33,68.01,82.15,64c-1.79-1-3.58-2.05-5-3.67c-2.11-2.4-2.99-5.38-3.31-8.64
			c-0.32-3.32-0.46-6.66-0.94-9.96c-0.29-2.02-0.92-3.93-1.34-5.9c-0.76-3.56,0.05-7.02,0.74-10.47c0.11-0.57,0.28-1.12,0.42-1.68
			c0.11-0.41,0.31-0.92-0.11-1.18c-0.48-0.31-0.82,0.15-1.1,0.52c-0.38,0.52-0.71,1.07-1.28,1.95c0-1.73,0.01-3.09,0-4.46
			c0-0.46,0.19-1.04-0.34-1.28c-0.56-0.25-0.87,0.25-1.2,0.64c-1.67,2.03-2.89,4.37-3.68,6.96c-0.76,2.48-1.41,2.87-3.69,2.11
			c-0.71-0.24-1.43-0.43-2.15-0.64c-1.88-0.55-3.57,0.01-5.02,1.32c-1.67,1.5-3.39,1.48-5.1,0.36c-2.07-1.36-4.5-1.06-6.66-1.98
			c-0.63-0.27-0.88,0.28-1.06,0.92c-0.93,3.33,0.29,6.35,3.35,7.8c1.92,0.91,3.93,1.58,5.87,2.43c0.61,0.27,1.63,0.48,1.53,1.29
			c-0.1,0.87-1.11,0.89-1.84,0.96c-2.28,0.22-4.53,0.27-6.53-1.28c-0.07-0.05-0.18-0.16-0.22-0.14c-0.75,0.53-1.54,0.99-2.2,1.63
			c-0.36,0.35-0.22,1,0.01,1.5c0.55,1.18,1.4,1.97,2.58,2.25c1.58,0.38,3.16,0.7,4.74,1.06c2.41,0.55,3.61,2,3.97,4.7
			c0.29,2.13-0.03,4.14-0.83,6.08c-2.07,5.03-3.69,10.22-4.64,15.67c-1.17,6.7,0.05,12.4,5.36,16.51c1.09,0.85,1.69,2.07,1.75,3.57
			c0.21,5.43,0.04,10.82-1.13,16.15c-0.47,2.15-0.42,4.42-0.88,6.6c-0.48,2.28-1.06,2.89-3.17,3.13c-2.37,0.27-3.06,0.98-3.57,3.43
			c-0.23,1.13,0.13,1.56,1.08,1.57c1.79,0.03,3.58,0.08,5.37,0.05c0.8-0.01,1.29,0.11,0.96,1.17c-0.33,1.07,0.1,1.55,1.03,1.63
			c3.71,0.31,7.43,0.74,11-0.98c1.63-0.79,2.29-2.09,2.06-4.03c-0.21-1.75-0.26-3.48,0.61-5.08c0.36-0.66,0.38-1.38,0.21-2.11
			c-1.64-6.95,1.05-8.18,5.66-9.68c0.79-0.26,1.05,0.3,1.27,0.87c0.55,1.42,1.13,2.84,1.56,4.3c1.27,4.33,4.07,6.86,7.78,8.37
			c0.65,0.27,1.3,0.55,1.95,0.84C86.1,119.2,86.13,119.31,86.27,119.52z M59.79,110.49c0.3,1.05,0.7,2.07,0.88,3.14
			c0.34,2.07,0.35,4.15-0.57,6.09c-0.54,1.13-2.6,1.71-3.14,0.91c-0.73-1.07,0.01-4.61,1.15-5.1c0.88-0.38,1.22-0.98,1.16-1.98
			C59.2,112.53,59.33,111.53,59.79,110.49z"/>
	</g>
</g>
<text transform="matrix(1 0 0 1 6.5118 78.0002)"><tspan x="0" y="0" class="st1 st2 st3">        </tspan><tspan x="24" y="0" class="st4 st2 st5">Different types </tspan><tspan x="45.47" y="21.6" class="st4 st2 st5">of dogs</tspan></text>
<rect x="110.49" y="97.81" class="st6" width="7.32" height="0"/>
</svg>
