<?xml version="1.0" encoding="utf-8"?>
<!-- Generator: Adobe Illustrator 25.4.1, SVG Export Plug-In . SVG Version: 6.00 Build 0)  -->
<svg version="1.1" id="Layer_1" xmlns="http://www.w3.org/2000/svg" xmlns:xlink="http://www.w3.org/1999/xlink" x="0px" y="0px"
	 viewBox="0 0 165 160" style="enable-background:new 0 0 165 160;" xml:space="preserve">
<style type="text/css">
	.st0{fill:#A1885E;stroke:#E4E5E6;stroke-width:3;stroke-miterlimit:10;}
	.st1{fill:#82C566;}
	.st2{font-family:'BerlinSansFBDemi-Bold';}
	.st3{font-size:12px;}
	.st4{fill:#C9CACC;}
	.st5{font-size:18px;}
	.st6{fill:none;}
</style>
<circle class="st0" cx="82.9" cy="79.7" r="78.2"/>
<g>
	<g>
		<path d="M86.3,119.5c-2.8,0-5.4,0-8.1,0c-0.8,0-1.5,0.1-2.2,0.3c-1.9,0.5-2.4,1.2-2.3,3.3c0.1,1.6,1,2.1,2.7,2.5
			c2.2,0.6,4.1-0.1,6.2-0.4c3.3-0.4,6.5,1,9.7,1.2c4.8,0.4,9.5-0.4,14-2.1c1.3-0.5,1.7-1.5,1.2-3c-0.3-0.9-0.7-1.7-1.1-2.5
			c-0.5-1.1-0.8-2.1-0.8-3.3c0-0.3-0.1-0.7,0.2-0.9c0.3-0.2,0.6,0.1,0.8,0.3c0.9,0.9,1.8,1.9,2.7,2.8c4.5,4.3,9.6,5.8,15.3,3.9
			c2.8-0.9,5.5-1.1,7.9,1.2c0.8,0.7,1.4,1.4,1.3,2.7c-0.1,0.9,0.5,0.9,1,0.8c2.4-0.6,4.7-1.7,6.4-3.7c1.4-1.7,1.3-3.4-0.3-4.9
			c-1.6-1.5-3.5-2.2-5.4-2.8c-5.5-1.9-11.2-3.2-16.8-4.7c-3.6-1-7-2.4-9.6-5.5c-2.2-2.5-3.5-5.6-4.6-8.9c-1.6-4.9-3.1-9.7-5.6-14.2
			C94.8,73.9,89.3,68,82.2,64c-1.8-1-3.6-2-5-3.7c-2.1-2.4-3-5.4-3.3-8.6c-0.3-3.3-0.5-6.7-0.9-10c-0.3-2-0.9-3.9-1.3-5.9
			c-0.8-3.6,0.1-7,0.7-10.5c0.1-0.6,0.3-1.1,0.4-1.7c0.1-0.4,0.3-0.9-0.1-1.2c-0.5-0.3-0.8,0.1-1.1,0.5c-0.4,0.5-0.7,1.1-1.3,2
			c0-1.7,0-3.1,0-4.5c0-0.5,0.2-1-0.3-1.3c-0.6-0.2-0.9,0.2-1.2,0.6c-1.7,2-2.9,4.4-3.7,7c-0.8,2.5-1.4,2.9-3.7,2.1
			c-0.7-0.2-1.4-0.4-2.2-0.6c-1.9-0.5-3.6,0-5,1.3c-1.7,1.5-3.4,1.5-5.1,0.4c-2.1-1.4-4.5-1.1-6.7-2c-0.6-0.3-0.9,0.3-1.1,0.9
			c-0.9,3.3,0.3,6.4,3.3,7.8c1.9,0.9,3.9,1.6,5.9,2.4c0.6,0.3,1.6,0.5,1.5,1.3c-0.1,0.9-1.1,0.9-1.8,1c-2.3,0.2-4.5,0.3-6.5-1.3
			c-0.1,0-0.2-0.2-0.2-0.1c-0.8,0.5-1.5,1-2.2,1.6c-0.4,0.3-0.2,1,0,1.5c0.5,1.2,1.4,2,2.6,2.2c1.6,0.4,3.2,0.7,4.7,1.1
			c2.4,0.5,3.6,2,4,4.7c0.3,2.1,0,4.1-0.8,6.1c-2.1,5-3.7,10.2-4.6,15.7c-1.2,6.7,0,12.4,5.4,16.5c1.1,0.8,1.7,2.1,1.8,3.6
			c0.2,5.4,0,10.8-1.1,16.2c-0.5,2.2-0.4,4.4-0.9,6.6c-0.5,2.3-1.1,2.9-3.2,3.1c-2.4,0.3-3.1,1-3.6,3.4c-0.2,1.1,0.1,1.6,1.1,1.6
			c1.8,0,3.6,0.1,5.4,0.1c0.8,0,1.3,0.1,1,1.2c-0.3,1.1,0.1,1.6,1,1.6c3.7,0.3,7.4,0.7,11-1c1.6-0.8,2.3-2.1,2.1-4
			c-0.2-1.8-0.3-3.5,0.6-5.1c0.4-0.7,0.4-1.4,0.2-2.1c-1.6-6.9,1.1-8.2,5.7-9.7c0.8-0.3,1.1,0.3,1.3,0.9c0.6,1.4,1.1,2.8,1.6,4.3
			c1.3,4.3,4.1,6.9,7.8,8.4c0.7,0.3,1.3,0.6,1.9,0.8C86.1,119.2,86.1,119.3,86.3,119.5z M59.8,110.5c0.3,1.1,0.7,2.1,0.9,3.1
			c0.3,2.1,0.3,4.2-0.6,6.1c-0.5,1.1-2.6,1.7-3.1,0.9c-0.7-1.1,0-4.6,1.2-5.1c0.9-0.4,1.2-1,1.2-2C59.2,112.5,59.3,111.5,59.8,110.5
			z"/>
	</g>
</g>
<text transform="matrix(1 0 0 1 6.5118 78.0002)" class="st1 st2 st3">        </text>
<text transform="matrix(1 0 0 1 30.5118 78.0002)" class="st4 st2 st5">Different types </text>
<text transform="matrix(1 0 0 1 51.9818 99.6002)" class="st4 st2 st5">of dogs</text>
<polygon class="st6" points="110.5,97.8 117.8,97.8 117.8,97.8 "/>
</svg>
