<?xml version="1.0" encoding="utf-8"?>
<!-- Generator: Adobe Illustrator 25.4.1, SVG Export Plug-In . SVG Version: 6.00 Build 0)  -->
<svg version="1.1" id="Layer_1" xmlns="http://www.w3.org/2000/svg" xmlns:xlink="http://www.w3.org/1999/xlink" x="0px" y="0px"
	 viewBox="0 0 165 160" style="enable-background:new 0 0 165 160;" xml:space="preserve">
<style type="text/css">
	.st0{fill:none;}
	.st1{font-family:'ArialMT';}
	.st2{font-size:12px;}
	.st3{fill:#7B7C7F;stroke:#E4E5E6;stroke-width:3;stroke-miterlimit:10;}
	.st4{opacity:0.6;fill:#8AB25D;stroke:#E4E5E6;stroke-width:3;stroke-miterlimit:10;enable-background:new    ;}
	.st5{fill:#82C566;}
	.st6{font-family:'BerlinSansFBDemi-Bold';}
	.st7{fill:#C9CACC;}
	.st8{font-size:18px;}
	.st9{letter-spacing:30;}
</style>
<path id="SVGID_x5F_1_x5F_" class="st0" d="M172.1,17.4c0,43.2-35,78.2-78.2,78.2s-78.2-35-78.2-78.2s35-78.2,78.2-78.2
	S172.1-25.8,172.1,17.4z"/>
<text transform="matrix(0.9562 0.2927 -0.2927 0.9562 115.2281 -57.9537)" class="st1 st2"> </text>
<text class="st1 st2"> </text>
<circle class="st3" cx="82.6" cy="81.1" r="78.2"/>
<circle class="st4" cx="82.4" cy="80.7" r="78.2"/>
<path id="SVGID_x5F_00000016769868187387543460000010255340442265146026_x5F_" class="st0" d="M163.3,150.9
	c0,43.2-35,78.2-78.2,78.2s-78.2-35-78.2-78.2s35-78.2,78.2-78.2S163.3,107.7,163.3,150.9z"/>
<text transform="matrix(0.9562 0.2927 -0.2927 0.9562 106.3604 75.6065)" class="st1 st2"> </text>
<text class="st1 st2"> </text>
<g>
	<g>
		<path d="M68.6,90.1c0.2,1.2,0.4,2.3,0.1,3.3c-0.1,0.2-0.2,0.5-0.3,0.7c-1.4,1.8-2.5,3.8-3.2,6c-1.2,3.8-2.6,7.5-4.4,11.1
			c-1.8,3.4-2.8,7.1-3.6,10.8c-0.2,0.7,0,1.4-0.2,2c-0.2,0.6-0.4,1.1-1,1.5c-1.2,0.7-1.8,1.9-2,3.2c-0.1,0.7-0.3,1.3-0.5,1.9
			c-0.2,0.5-0.5,0.9-1,1.2c-0.5,0.3-1,0.8-1.2,1.5c-0.5,1.5-1.4,2.5-3,2.8c-0.2,0-0.3,0.1-0.5,0.1c-2.2,1.2-4.6,1.1-6.9,0.5
			c-0.2-0.1-0.4-0.2-0.7-0.1c-0.5,0.2-0.9,0.5-1-0.4c0-0.2-0.6-0.5-1-0.4c-0.5,0.1-0.6-0.2-0.4-0.6c0.2-0.6,0.6-1,1-1.5
			c1.6-1.8,3.5-3.2,6-3.5c0.6-0.1,1.1-0.6,1.5-1c2-1.8,3.2-4.2,4.3-6.6c0.4-0.8,0.3-1.7,0.5-2.5c0.4-2,1-3.9,1.7-5.8
			c0.9-2.5,1.3-5.1,1.9-7.6c0.8-3.5,1.1-7,2-10.5c0.5-1.9,1-3.8,1.6-5.6c0.4-1.2,0.4-2.5,0.5-3.7c0.1-3.2,0.1-6.3-0.5-9.4
			c-0.8-4.6,0.3-8.7,2.2-12.7c1.6-3.3,3.3-6.5,5-9.8c0.2-0.3,0.2-0.5,0.1-0.8c-0.2-0.5-0.4-0.9-0.6-1.4c-0.4-1.1-0.3-2.1,0.5-3
			c0.2-0.2,0.3-0.3,0.3-0.6c-0.3-1.9-0.2-3.8-0.2-5.8c0-1-0.2-1.2-1.2-1.2c-0.7,0-1.3,0.1-1.9,0.3c-1.5,0.4-2.9,0.3-4.3-0.5
			c-0.2-0.1-0.3-0.2-0.5-0.1c-1.8,0.4-2.6-1-2.9-2.6c-0.1-0.8-0.2-1.6-0.2-2.4c0-0.6,0-1.1-0.4-1.6c-0.3-0.3-0.2-0.8,0-1.2
			c0.3-0.5,0.7-0.9,1.2-1.2c1.5-1,3-2,3.9-3.5c0.4-0.7,1-1.6,0.7-2.7c0,0,0-0.1,0-0.1c0.2-0.6,0.1-1.1-0.7-1.2
			c0.7-0.1,0.8-0.5,1-1.1c0.4-1.5,1.3-2.7,2.5-3.7c2.1-1.9,4.5-3,7.2-3.6c2-0.5,4-0.9,6-0.7c2.4,0.3,4.5,1.4,6.2,3.1
			c0.3,0.4,0.6,0.5,1.1,0.4c1.4-0.3,2.5,0.3,3.4,1.3c0.9,1,1.7,2.1,2.7,3c0.6,0.5,1.3,0.8,1.9,1.2c1.6,1.3,2.4,3,2.9,5
			c0.4,1.7,0.4,3.4,0.5,5.2c0,1.1,0.2,2.2,0.8,3.1c0.2,0.3,0.3,0.6,0,0.9c-0.3,0.2-0.5,0-0.7-0.2c-0.3-0.3-0.6-0.6-0.9-0.9
			c-0.7-0.8-1.5-1.2-2.5-1.4c-1-0.2-1.3-0.6-1.4-1.6c-0.1-0.8,0.1-1.6-0.4-2.3c-0.3-0.6-0.8-1-1.4-1.2c-0.4-0.2-0.5,0-0.4,0.3
			c0.2,1.9,0.3,3.8,0.3,5.6c0,0.5,0,1,0,1.5c-0.1,1.4,0.2,2.7,1.4,3.7c0.1,0,0.1,0.1,0.2,0.1c-0.6,0.5,0.3,0.5,0.3,0.9
			c-0.6-0.1-0.7,0.2-0.6,0.7c0,0.2,0.1,0.4,0,0.5c-0.4,0.8,0.1,1.2,0.5,1.8c0.9,1.2,1.6,2.6,2.2,4c0.4,0.9,1,1.7,1.5,2.5
			c0.8,1.3,1.4,2.7,1.7,4.2c0.4,1.7,1.3,2.9,2.4,4.1c1.4,1.6,3,3.1,4.3,4.8c2.3,3.2,4.3,6.6,6.3,10c1.8,3.1,3.7,6.2,5.4,9.3
			c2.3,4.2,4.6,8.5,6.3,13c1.1,2.9,2.3,5.8,3,8.9c0.7,3.2,0.9,6.4,0.3,9.6c-0.1,0.7-0.2,1.4-0.3,2.1c-0.1,0.7,0.1,1,0.8,1.1
			c1,0.1,2-0.2,2.9-0.4c1.6-0.5,3.2-1.1,4.7-1.9c0.3-0.2,0.6-0.3,0.9-0.4c0.2,0.2-0.1,0.3,0.1,0.5c2.2-1.1,4.7-2.1,5.9-4.6
			c0.3,0.3,0.3,0.7,0.4,1c0.1,0.2,0.1,0.2,0.3,0.4c0.1,0.1,0.1,0.3,0.1,0.5c0,1.2-0.4,2.2-1.1,3.1c-1.4,1.7-3.2,2.7-5.1,3.6
			c-0.3,0.1-0.6,0.2-0.8,0.3c-0.1,0-0.6,0-0.1,0.3c0.1,0.1-0.1,0.2-0.2,0.3c-2.6,1.6-5.4,2.8-8.5,2.9c-0.4,0-0.9,0-1.3-0.1
			c-0.4-0.1-0.7,0.1-0.9,0.5c-0.4,0.8-0.3,1.6,0.4,2.3c1,1,1.1,2.6,0.1,3.6c-0.4,0.4-0.9,0.4-1.4,0.5c-1.4,0.2-2.8,0.3-4.1,0.4
			c-1.7,0.1-3.3,0.8-5,1.1c-1.8,0.4-3.6,1-5.4,1.7c-0.7,0.2-1.4,0.3-2.1,0.4c-0.6,0.1-1.2,0-1.7,0.5c-0.2,0.2-0.5,0.2-0.6,0
			c-0.3-0.4-0.7-0.4-1.1-0.4c-0.3,0-0.6-0.1-0.9-0.2c-0.6-0.3-1.1-0.5-1.7-0.2c-0.4,0.2-0.7-0.1-0.6-0.5c0.1-0.6-0.2-0.6-0.6-0.5
			c-0.2,0.1-0.4,0.1-0.5,0c-0.2-0.2,0-0.4,0-0.6c0.8-3,3.1-4.1,5.9-4.6c1.4-0.2,2.8-0.5,4.2-1.1c-1-0.4-1.9-0.7-2.7-1.1
			c-1.1-0.6-2.2-1.3-3.2-2.1c-0.3-0.3-0.6-0.3-1.1-0.2c-4.6,1.8-9.4,2.7-14.3,3.3c-2.4,0.3-4.8,0.5-7.2,0.6c-0.4,0-0.6,0.1-0.8,0.5
			c-1,1.6-1,3.6-1.4,5.3c-0.3,1.3-0.6,2.7-0.8,4c-0.2,1.2-1,2-2,2.6c-1.1,0.7-2.5,1.1-3.7,1.2c-1.4,0.2-2.9,0.3-4.4-0.2
			c-0.4-0.1-0.7-0.1-1.1,0.1c-0.5,0.3-1,0.4-1.3-0.3c-0.1-0.2-0.2-0.2-0.3-0.1c-0.6,0.4-0.6-0.1-0.6-0.5c0.1-1.4,0.7-2.6,1.7-3.5
			c0.8-0.8,1.7-1.5,2.7-2c1-0.5,1.7-1.4,2.2-2.4c1.3-2.3,2-4.9,2.7-7.4c0-0.1,0.1-0.2,0.1-0.3c-0.3-3.4,0.8-6.5,1.7-9.7
			c0.7-2.5,1.1-5,1.6-7.5c0.5-2.9,1-5.8,1.3-8.7c0.1-1.4,0.2-2.8,0.4-4.1c0-0.2,0-0.4-0.2-0.6C72.8,94.1,70.8,92.2,68.6,90.1z
			 M81.8,109.7c-0.1,0.3-0.1,0.4-0.2,0.5c-0.5,1.8-1,3.7-1.6,5.6c-0.7,2.4-1.3,4.7-2,7.1c-0.1,0.3-0.3,0.6,0.3,0.7
			c1.6,0.2,3.1,0.3,4.7,0.2c2.4-0.1,4.7-0.4,7-1.2c1.3-0.5,1.8-1.5,1.2-2.8c-0.7-1.7-1.9-2.9-3.4-3.8c-1.3-0.8-2.4-1.7-3.4-2.8
			C83.5,112.2,82.7,111,81.8,109.7z"/>
	</g>
</g>
<text transform="matrix(1 0 0 1 4.3134 80.2431)" class="st5 st6 st2">        </text>
<text transform="matrix(1 0 0 1 28.3134 80.2431)" class="st7 st6 st8">Caring for your </text>
<text transform="matrix(1 0 0 1 4.3134 101.8431)" class="st7 st6 st8 st9">  </text>
<text transform="matrix(1 0 0 1 76.3134 101.8431)" class="st7 st6 st8">  dog</text>
<path id="SVGID_x5F_00000116232975331433511290000008858842280045811584_x5F_" class="st0" d="M131.8,108.5
	c0,43.2-35,78.2-78.2,78.2s-78.2-35-78.2-78.2s35-78.2,78.2-78.2S131.8,65.3,131.8,108.5z"/>
<text transform="matrix(0.9562 0.2927 -0.2927 0.9562 74.8531 33.2071)" class="st1 st2"> </text>
<text class="st1 st2"> </text>
</svg>
