<?xml version="1.0" encoding="utf-8"?>
<!-- Generator: Adobe Illustrator 25.4.1, SVG Export Plug-In . SVG Version: 6.00 Build 0)  -->
<svg version="1.1" id="Layer_1" xmlns="http://www.w3.org/2000/svg" xmlns:xlink="http://www.w3.org/1999/xlink" x="0px" y="0px"
	 viewBox="0 0 199 198" style="enable-background:new 0 0 199 198;" xml:space="preserve">
<style type="text/css">
	.st0{fill:#E6E7E8;}
	.st1{fill:none;stroke:#58595B;stroke-miterlimit:10;}
	.st2{fill:#CAD9B7;stroke:#6D6E71;stroke-width:2;stroke-miterlimit:10;}
	.st3{fill:none;stroke:#6D6E71;stroke-width:2;stroke-miterlimit:10;}
</style>
<circle class="st0" cx="104.3" cy="101.7" r="94.2"/>
<circle class="st1" cx="104.3" cy="103.7" r="94.2"/>
<circle class="st2" cx="95.1" cy="95.9" r="94.2"/>
<circle class="st3" cx="95.1" cy="95.9" r="94.2"/>
<polygon class="st0" points="182,56.4 183.5,60 185.9,58.2 185.2,56.4 "/>
<polygon class="st0" points="262.9,198.4 264.4,202.1 266.8,200.2 266.1,198.4 "/>
<g>
	<g>
		<path d="M29.3,93.9C33.2,94,37.1,94,41,94c21.7,0,43.5,0,65.2,0c1.7,0,2.8-0.3,3.7-2c4.7-8.3,16.4-8.3,21.2-0.1
			c0.9,1.6,1.9,2.1,3.7,2.1C143.9,94,153,94,162,93.9c0,2.8,0,5.7,0,8.5c-9.4,0-18.8-0.1-28.2-0.1c-1.1,0-1.7,0.4-2.2,1.4
			c-5.4,9.2-16.7,9.2-22-0.1c-0.8-1.5-1.9-1.3-3.1-1.3c-18.5,0-37.1,0-55.6,0c-7.2,0-14.4,0.1-21.6,0.1
			C29.3,99.6,29.3,96.8,29.3,93.9z M120.7,94c-2.2-0.1-4.3,1.9-4.3,4.2c0,2.1,1.8,4.1,3.9,4.2c2.2,0.2,4.3-1.8,4.4-4
			C124.8,96.1,122.9,94.1,120.7,94z"/>
		<path d="M162,60.9c-31.1,0-62.2,0-93.2,0c-1.9,0-3.1,0.3-4.2,2.2c-4.7,8.2-16.5,8-21.2-0.3c-0.8-1.4-1.6-2-3.2-2
			c-3.6,0.1-7.3,0-10.9,0c0-2.7,0-5.3,0-8c3.7,0,7.4-0.1,11.1-0.2c0.9,0,2,0.2,2.5-1c1.7-3.9,5-6,8.8-7.4c1.6,0,3.2,0,4.8,0
			c3.4,1.2,6.6,2.8,8.2,6.2c0.9,2,2.3,2.3,4.2,2.3c29.9,0,59.8,0,89.7,0c1.1,0,2.3,0.1,3.4,0.2C162,55.6,162,58.2,162,60.9z
			 M54.3,52.7c-2.3-0.1-4.1,1.6-4.2,3.9c-0.1,2.4,1.6,4.3,4,4.4c2.4,0.1,4.3-1.8,4.3-4.1C58.3,54.5,56.5,52.7,54.3,52.7z"/>
		<path d="M29.3,135.5c11.8,0,23.6,0,35.4,0c1.7,0,2.7-0.3,3.7-2.1c4.6-8.3,16.5-8.3,21.2-0.1c1,1.8,2.1,2.2,3.9,2.2
			c22.8-0.1,45.7,0,68.5,0c0,2.7,0,5.3,0,8c-1.1,0.1-2.1,0.1-3.2,0.1c-21.8,0-43.6,0-65.5,0c-1.1,0-2.4-0.5-3,0.9
			c-1.7,3.9-5,6-8.8,7.4c-1.6,0-3.2,0-4.8,0c-3.2-1.2-6.4-2.5-7.9-5.7c-1.2-2.4-2.7-2.7-5-2.7c-11.5,0.1-23-0.1-34.5-0.1
			C29.3,140.9,29.3,138.2,29.3,135.5z M79.2,143.8c2.4-0.1,4.1-2,4-4.4c-0.1-2.2-1.9-3.9-4.2-3.9c-2.3,0.1-4.1,2-4,4.4
			C75.1,142.1,76.9,143.8,79.2,143.8z"/>
	</g>
</g>
</svg>
