<?xml version="1.0" encoding="utf-8"?>
<!-- Generator: Adobe Illustrator 25.4.1, SVG Export Plug-In . SVG Version: 6.00 Build 0)  -->
<svg version="1.1" id="Layer_1" xmlns="http://www.w3.org/2000/svg" xmlns:xlink="http://www.w3.org/1999/xlink" x="0px" y="0px"
	 viewBox="0 0 199 198" style="enable-background:new 0 0 199 198;" xml:space="preserve">
<style type="text/css">
	.st0{fill:#E6E7E8;}
	.st1{fill:none;stroke:#58595B;stroke-miterlimit:10;}
	.st2{fill:#CAD8B6;stroke:#6D6E71;stroke-width:2;stroke-miterlimit:10;}
	.st3{fill:none;stroke:#6D6E71;stroke-width:2;stroke-miterlimit:10;}
</style>
<circle class="st0" cx="104.7" cy="103.5" r="94.2"/>
<circle class="st1" cx="104.7" cy="105.5" r="94.2"/>
<circle class="st2" cx="95.5" cy="97.7" r="94.2"/>
<circle class="st3" cx="95.5" cy="97.7" r="94.2"/>
<polygon class="st0" points="182.4,58.2 183.9,61.8 186.3,60 185.6,58.2 "/>
<g>
	<g>
		<path d="M76.2,152.7c-9.8,0-19.7,0-29.5,0c-1.2,0-2.3-0.1-3.3-0.8c-1.4-1-2-2.7-1.6-4.3c0.4-1.6,1.8-2.8,3.5-3
			c0.5-0.1,0.9,0,1.3,0c18.4,0,36.9,0,55.3,0c1.9,0,1.9,0,1.9-2c0-1.4,0-2.7,0-4.1c0-1.4,0.8-2.1,2-2.2c1.2,0,2.1,0.8,2.1,2.2
			c0,1.6,0,3.3,0,4.9c0,0.8,0.3,1.1,1.1,1c13.5-1.3,24.2-7.4,32-18.6c4.2-6,6.5-12.7,7.2-19.9c0.2-1.8,0.1-1.8-1.7-1.8
			c-1.4,0-2.9,0-4.3-0.1c-1.3-0.1-2.1-1-2.1-2.2c0.1-1.2,0.9-1.9,2.2-2c1.5,0,3-0.1,4.6,0c1,0,1.4-0.3,1.3-1.4
			c-0.4-5.7-1.9-11.2-4.7-16.2c-6.7-12.3-17-19.8-30.9-22.3c-1.2-0.2-2.4-0.3-3.5-0.4c-0.9-0.1-1.3,0.2-1.2,1.2c0.1,1.5,0,3,0,4.6
			c0,1.5-0.8,2.4-2.1,2.4c-1.2,0-2-0.9-2-2.4c0-1.6,0-3.1,0-4.7c0-0.9-0.3-1.1-1.2-1.1c-7.1,0.5-13.7,2.7-19.7,6.5
			c-7.7,4.9-13.2,11.6-16.7,20c-0.1,0.3-0.2,0.5-0.3,0.8c-0.8,2.6-2.1,3.5-4.8,3.5c-6.2,0-12.4,0-18.6,0c-3.2,0-6.4,0-9.6,0
			c-1.9,0-3.4-1.1-4-2.8c-0.5-1.6,0-3.4,1.3-4.4c0.9-0.7,1.8-0.8,2.9-0.8c8.1,0,16.2,0,24.3,0c1.2,0,1.8-0.4,2.3-1.5
			c1.9-4.2,4.4-8.1,7.4-11.6c0.3-0.4,0.9-0.8,0.2-1.4c-0.6-0.6-0.9-0.3-1.5,0c-1.7,1-3.5,0.6-4.7-0.9c-1.3-1.5-1.3-3.3,0.1-4.8
			c1.5-1.6,3.1-3.2,4.7-4.7c1.3-1.3,3.2-1.3,4.6-0.3c1.6,1.2,2.1,3.1,1.2,4.8c-0.3,0.5-0.7,1,0,1.6c0.8,0.6,1.2,0,1.6-0.4
			c7.6-6.3,16.2-10.1,26-11.4c2.5-0.3,2.4-0.4,2.5-2.9c0-1-0.3-1.5-1.4-1.7c-2.6-0.5-3.8-2.4-3.6-5.3c0.1-2.4,1.6-4.1,4.1-4.3
			c3.2-0.3,6.4-0.3,9.6,0c2.5,0.2,4.1,2,4.2,4.4c0.1,2.9-1.1,4.8-3.8,5.3c-1,0.2-1.2,0.6-1.2,1.5c0,2.8,0,2.8,2.8,3.2
			c9.6,1.3,18,5.1,25.5,11.2c0.2,0.1,0.3,0.3,0.5,0.4c0.4,0.4,0.8,0.6,1.4,0.1c0.6-0.5,0.3-0.9,0-1.4c-0.9-1.3-0.8-2.7,0.1-3.9
			c1-1.3,2.2-2.1,3.9-1.7c0.6,0.1,1.1,0.4,1.5,0.8c1.7,1.6,3.4,3.2,4.9,5c1.2,1.3,1.2,3.2,0.1,4.5c-1.4,1.7-3.1,2-4.8,1.1
			c-0.4-0.2-0.7-0.7-1.2-0.3c-0.7,0.5-0.7,1-0.1,1.6c2.8,3.3,5.2,6.8,7,10.7c8.1,18,6.8,35.3-4.6,51.6
			c-7.8,11.2-18.8,17.8-32.3,20.4c-3,0.6-6.1,0.8-9.2,0.8C95.7,152.7,86,152.7,76.2,152.7z"/>
		<path d="M40.9,121.5c-5.7,0-11.3,0-17,0c-1.7,0-2.9-0.7-3.6-2.2c-0.7-1.5-0.5-2.9,0.5-4.3c0.8-1,1.9-1.5,3.1-1.5
			c10.7,0,21.3,0,32,0c0.7,0,1.1,0.3,1.3,1c0.5,2,1.1,3.9,1.9,5.8c0.4,1,0,1.2-0.9,1.2C52.4,121.5,46.7,121.5,40.9,121.5z"/>
		<path d="M91.4,91.6c0.7,0,1.1,0.3,1.6,0.6c3.7,2.1,7.4,4.2,11.1,6.4c0.8,0.5,1.2,0.5,1.7-0.4c3.2-5.8,6.6-11.5,9.8-17.2
			c0.2-0.4,0.5-0.8,0.8-1.2c0.8-1,1.7-1.2,2.7-0.6c1,0.6,1.4,1.7,0.8,2.8c-1,1.9-2.1,3.7-3.1,5.6c-2.9,5-5.8,9.9-8.6,14.9
			c-1.2,2-2,2.2-4,1.1c-4.4-2.5-8.8-5.1-13.2-7.6c-1.6-0.9-1.9-2.3-1-3.4C90.3,91.8,90.8,91.6,91.4,91.6z"/>
		<path d="M60.6,137c-2.4,0-4.8,0-7.1,0c-2.5,0-4.2-1.7-4.3-4c0-2.3,1.8-4,4.2-4.1c3,0,6,0,9,0c0.7,0,1.2,0.3,1.6,0.9
			c1.4,2.1,3,4.2,4.8,6.1c0.2,0.2,0.6,0.4,0.4,0.8c-0.2,0.4-0.6,0.2-0.9,0.2C65.8,137,63.2,137,60.6,137z"/>
		<path d="M50.4,106c-1.3,0-2.6,0-3.9,0c-2.4-0.1-4-1.7-4-4.1c0-2.3,1.7-3.9,4-3.9c2.6,0,5.2,0,7.9,0c0.9,0,1.3,0.3,1.3,1.3
			c-0.1,1.8-0.1,3.7,0,5.5c0,0.9-0.3,1.3-1.2,1.2C53.2,105.9,51.8,106,50.4,106z"/>
		<path d="M66.8,104.1c-0.9,0-1.7,0-2.6,0c-0.8,0-1.1-0.3-1.2-1.1c-0.3-3-0.2-3.1,2.8-3.1c1.2,0,2.4,0,3.6,0c1.4,0,2.3,0.9,2.3,2.1
			c0,1.2-0.8,2-2.2,2.1c-0.4,0-0.9,0-1.3,0S67.2,104.1,66.8,104.1C66.8,104.1,66.8,104.1,66.8,104.1z"/>
		<path d="M76.1,83.8c0,0.9-0.7,1.6-1.6,1.7c-0.9,0-1.7-0.8-1.8-1.7c0-0.9,0.8-1.7,1.8-1.6C75.4,82.2,76.1,82.9,76.1,83.8z"/>
		<path d="M87.7,131.8c0.8,0,1.6,0.8,1.7,1.6c0,0.9-0.8,1.7-1.7,1.7c-0.9,0-1.6-0.8-1.7-1.6C86,132.6,86.8,131.8,87.7,131.8z"/>
		<path d="M74.4,118.5c0.9,0,1.7,0.8,1.7,1.7c0,0.9-0.8,1.7-1.7,1.7c-0.9,0-1.6-0.8-1.6-1.7C72.8,119.2,73.5,118.5,74.4,118.5z"/>
		<path d="M139,120.2c0,0.9-0.7,1.7-1.6,1.7c-0.9,0-1.7-0.7-1.7-1.6c0-0.9,0.8-1.7,1.7-1.7C138.3,118.5,139,119.2,139,120.2z"/>
		<path d="M125.7,133.4c0,0.9-0.7,1.7-1.5,1.7c-0.9,0-1.8-0.7-1.8-1.6c0-0.9,0.8-1.7,1.7-1.7C124.9,131.8,125.7,132.5,125.7,133.4z"
			/>
		<path d="M87.6,72.2c-0.9-0.1-1.6-0.9-1.6-1.8c0.1-1,0.9-1.7,1.8-1.5c0.9,0.1,1.5,0.7,1.5,1.7C89.4,71.5,88.5,72.3,87.6,72.2z"/>
		<path d="M137.3,85.5c-0.9,0-1.6-0.8-1.6-1.7c0-0.9,0.8-1.7,1.8-1.7c0.9,0.1,1.6,0.7,1.6,1.7C139,84.8,138.2,85.5,137.3,85.5z"/>
		<path d="M125.7,70.5c0,0.9-0.7,1.7-1.6,1.7c-0.9,0-1.8-0.8-1.7-1.7c0-0.9,0.8-1.6,1.7-1.6C125,68.9,125.7,69.6,125.7,70.5z"/>
	</g>
</g>
</svg>
