<?xml version="1.0" encoding="utf-8"?>
<!-- Generator: Adobe Illustrator 25.4.1, SVG Export Plug-In . SVG Version: 6.00 Build 0)  -->
<svg version="1.1" id="Layer_1" xmlns="http://www.w3.org/2000/svg" xmlns:xlink="http://www.w3.org/1999/xlink" x="0px" y="0px"
	 viewBox="0 0 199 198" style="enable-background:new 0 0 199 198;" xml:space="preserve">
<style type="text/css">
	.st0{fill:#E6E7E8;}
	.st1{fill:none;stroke:#58595B;stroke-miterlimit:10;}
	.st2{fill:#DCECCB;stroke:#6D6E71;stroke-width:2;stroke-miterlimit:10;}
	.st3{fill:none;stroke:#6D6E71;stroke-width:2;stroke-miterlimit:10;}
</style>
<circle class="st0" cx="104.75" cy="100.87" r="94.21"/>
<circle class="st1" cx="104.75" cy="102.87" r="94.21"/>
<circle class="st2" cx="95.58" cy="95.08" r="94.21"/>
<g>
	<g>
		<path d="M151.41,86.67c-0.56,3.27-0.32,6.2,0.52,9.07c0.24,0.82,0.51,1.62,0.61,2.49c0.15,1.24-0.09,2.4-0.8,3.36
			c-1.78,2.37-3.21,5.01-4.86,7.47c-1.65,2.46-4.6,3.1-6.9,1.55c-0.77-0.52-0.86-1.19-0.2-1.93c0.57-0.64,1.28-1.05,2.04-1.28
			c2.89-0.86,4.05-3.34,4.74-6.21c0.7-2.91,0.28-5.73-0.56-8.47c-0.96-3.14-2.06-6.23-3.04-9.37c-0.85-2.73-1.17-5.56-0.61-8.46
			c0.16-0.81-0.08-1.07-0.8-1.24c-4.13-0.96-8.06-0.42-11.85,1.91c-4.01,2.47-8.29,3.89-12.82,4.18c-0.69,0.05-1.02,0.4-1.2,1.09
			c-0.21,0.8-0.43,1.59-0.5,2.42c-0.33,3.99-1.63,7.82-1.87,11.82c-0.17,2.82-0.79,5.56-1.08,8.35c-0.15,1.44-0.59,2.62-2.1,3.04
			c-1.38,0.39-1.5,1.9-1.82,3.14c-0.84,3.26-3.68,4.78-6.46,3.42c-0.94-0.46-1.21-1.49-0.66-2.55c0.47-0.9,1.2-1.51,1.99-1.97
			c1.92-1.1,2.68-2.93,3.07-5.16c0.83-4.77,1.45-9.54,1.33-14.38c0-0.14-0.03-0.28-0.27-0.45c-0.3,1.56-0.67,3.11-0.88,4.68
			c-0.33,2.51-0.77,5.01-0.7,7.56c0.02,0.62-0.16,1.25-0.28,1.87c-0.06,0.3-0.2,0.74-0.49,0.69c-1.1-0.19-1.18,0.82-1.48,1.52
			c-0.3,0.71-0.5,1.48-0.73,2.23c-0.44,1.39-1.23,2.27-2.6,2.49c-1.53,0.24-3.02,0.23-4.49-0.32c-0.6-0.23-0.61-0.53-0.4-1.15
			c0.42-1.22,1.26-1.97,2.23-2.48c2.18-1.15,3.15-3.16,3.55-5.62c0.72-4.39,0.78-8.8,0.66-13.23c-0.08-3,0.14-5.99,0.62-8.96
			c0.33-2.03,0.07-3.79-0.93-5.59c-1.25-2.25-1.34-4.99-1.5-7.62c-0.08-1.36-0.11-2.74,0.43-4.05c0.06-0.14-0.03-0.38-0.1-0.55
			c-1.37-3.35-1.63-7.03-2.34-10.58c-0.24-1.22-0.46-2.45-0.95-3.59c-0.99-2.31-2.34-3.06-4.67-2.86c-2.61,0.23-5.24,0.31-7.78-0.53
			c-1.2-0.4-1.97-1.29-2.33-2.63c-0.21-0.8-0.58-1.48-1.1-2.09c-0.75-0.89-0.62-1.79,0.34-2.46c1.23-0.86,2.61-1.24,4-1.6
			c0.62-0.16,1.25-0.31,1.85-0.55c0.77-0.31,1.49-0.85,1.68-1.74c0.35-1.65,1.38-2.47,2.65-3.04c7.55-3.42,14.08-1.06,17.25,7.39
			c1.28,3.4,3.3,6.24,4.66,9.53c0.34,0.81,1.24,1.06,1.98,1.16c3.35,0.43,6.35,1.87,9.28,3.55c0.88,0.51,1.87,0.72,2.87,0.72
			c2.92,0.02,5.77,0.59,8.63,1.09c4.04,0.7,8.15,1.09,12.08,2.39c1.08,0.35,2.18,0.66,3.22,1.12c2.4,1.05,4.92,1.62,7.41,2.34
			c2.73,0.79,5.5,1.34,8.3,1.74c5.28,0.74,10.43,0.27,15.35-2.51c1.26-0.71,2.61-1.24,4.18-1.28c-1.35,2.27-2.86,4.16-5.02,5.2
			c-5.43,2.61-11.02,4-16.89,3.12c-1.11-0.17-2.17-0.65-3.41-0.52c0.58,2.95,0.38,5.96,0.55,8.92c0.1,1.77-0.03,3.54-0.3,5.31
			c-0.5,3.37-0.5,6.63,0.7,9.85c0.73,1.96,0.98,4.16,1.54,6.21c0.52,1.89,1.46,3.57,2.53,5.1c0.89,1.28,1.1,2.67,0.63,4.1
			c-1.14,3.48-1.27,7.04-1.21,10.63c0.01,0.66-0.01,1.26-0.29,1.82c-0.55,1.12-1.37,2.04-1.82,3.28c-0.3,0.82-1.35,0.78-2.13,0.75
			c-1.18-0.05-2.29-0.42-3.42-0.74c-1.01-0.28-0.95-0.96-0.73-1.78c0.17-0.64,0.58-1.12,1.08-1.44c1.34-0.85,2.13-2.15,2.44-3.77
			c0.37-1.97,0.95-3.9,0.88-5.96c-0.05-1.4-0.34-2.65-1.06-3.74c-3.16-4.78-6.08-9.74-9.03-14.68
			C151.76,87.07,151.65,86.97,151.41,86.67z"/>
	</g>
</g>
<g>
	<g>
		<path d="M73.03,142.28c-0.08-0.25-0.22-0.49-0.24-0.74c-0.03-0.39,0.19-0.57,0.59-0.38c0.49,0.23,1.01,0.44,1.32,0.89
			C74.14,142.13,73.59,142.2,73.03,142.28z"/>
		<path d="M38.87,111.51c-1.25,1.95-2.86,3.11-4.57,4.21c-1.86,1.2-3.48,2.7-5.18,4.1c-0.23,0.19-0.55,0.4-0.34,0.74
			c1.25,1.9,0.78,4.06,0.94,6.11c0.12,1.51,0.29,3.09-0.92,4.41c-0.26,0.28-0.09,0.46,0.22,0.6c0.28,0.12,0.56,0.27,0.81,0.43
			c0.41,0.28,0.74,0.64,0.64,1.14c-0.11,0.52-0.66,0.42-1.04,0.49c-0.69,0.12-1.39,0.18-2.09,0.26c-0.51,0.05-1.01-0.03-1.35-0.4
			c-0.63-0.7-1.43-1.03-2.39-1.24c-1.61-0.35-2.51-1.45-2.97-2.86c-0.74-2.25-1.12-4.55-0.98-6.93c0.17-3.01,2.11-4.35,5.12-4.58
			c0.64-0.05,1.15-0.19,1.62-0.56c3.71-2.89,5.17-6.5,4.17-10.87c-0.35-1.52-0.82-3.02-1.26-4.52c-0.27-0.93-0.37-1.84,0.02-2.78
			c0.23-0.55,0.4-1.12,0.57-1.69c0.49-1.7,0-2.79-1.6-3.7c-0.29-0.16-0.55-0.24-0.88-0.08c-0.31,0.15-0.64,0.28-0.97,0.39
			c-1.92,0.61-3.6,0.49-5.04-1.02c-2.02-2.11-3.57-4.44-4.28-7.22c-0.26-1.02-0.33-2.07-0.14-3.11c0.6-3.35,2.16-6.31,4.72-8.77
			c1.73-1.65,3.82-2.29,6.27-1.62c1.17,0.32,1.8,1.02,2.07,2.08c0.48,1.91,0.29,3.83-0.04,5.74c-0.26,1.51-0.08,2.9,0.58,4.27
			c0.44,0.91,0.75,1.88,1.09,2.83c0.16,0.43,0.21,0.88,0.09,1.35c-0.07,0.27-0.48,0.6,0.05,0.83c0.49,0.21,0.9,0.17,1.3-0.27
			c0.98-1.1,2.09-2.04,3.58-2.56c2.34-0.82,4.66-0.45,6.95,0c0.85,0.17,1.22,0.05,1.58-0.71c0.93-1.95,2.55-3.38,4.33-4.67
			c0.95-0.69,2.19-1.25,2.73-2.15c0.52-0.87-0.24-2.03-0.38-3.08c-0.26-2.07-0.05-4.1,0.41-6.13c0.16-0.69,0.1-1.3-0.14-1.98
			c-1.34-3.81-0.3-6.8,3.78-8.52c3.22-1.36,6.56-2.02,10.07-1.56c3,0.39,4.92,2.19,5.27,4.97c0.11,0.85,0.39,1.57,1.11,2.12
			c0.51,0.39,0.69,0.96,0.85,1.53c0.19,0.66,0.54,0.94,1.37,0.74c1.98-0.46,3.99-0.86,5.99-1.22c1.3-0.24,1.53-0.03,1.69,1.18
			c0.08,0.6,0.05,1.19-0.3,1.71c-0.39,0.59-0.82,1.11-0.81,1.87c0.01,0.53-0.58,0.78-1.05,1.02c-1.8,0.91-3.65,1.73-5.32,2.86
			c-1.07,0.73-1.52,1.6-1.36,2.78c0.05,0.39,0.1,0.78,0.11,1.17c0.05,1.25,0.28,2.27,1.98,2.42c0.9,0.07,1.51,0.78,1.91,1.53
			c1.89,3.5,3.21,7.16,3.54,11.12c0.13,1.63-0.33,3.1-1.25,4.48c-1.74,2.6-4.02,4.77-6.45,6.81c-0.55,0.47-0.59,0.75-0.08,1.23
			c0.66,0.61,1.26,1.29,1.86,1.96c0.33,0.38,0.6,0.45,1.01,0.06c0.8-0.77,1.75-0.85,2.82-0.58c3.24,0.81,5.96,2.27,6.86,5.46
			c0.89,3.18,0.16,6.21-2.09,8.88c-0.51,0.61-1.25,0.94-2.04,0.88c-1.31-0.1-2.3,0.36-3.18,1.21c-0.33,0.31-0.74,0.74-1.27,0.53
			c-0.59-0.24-0.61-0.82-0.62-1.35c0-1.06,0.33-2.02,1.31-2.66c0.37-0.24,0.34-0.34,0.14-0.65c-0.9-1.43-1.94-2.75-3.12-3.99
			c-1.15-1.21-1.8-2.57-1.63-4.26c0.11-1.06-1.19-2.15-2.42-2.23c-0.4-0.03-0.38,0.25-0.44,0.43c-0.5,1.4-0.98,2.81-1.47,4.21
			c-0.08,0.23-0.18,0.44,0.09,0.6c2.1,1.24,2.39,3.25,2.43,5.3c0.05,2.49-0.28,4.96-1.44,7.27c-0.29,0.58-0.17,0.87,0.31,1.22
			c0.32,0.23,0.78,0.48,0.65,0.92c-0.14,0.45-0.67,0.57-1.11,0.65c-1.42,0.28-2.74,0.24-3.6-1.07c-0.2-0.3-0.57-0.35-0.89-0.48
			c-3.81-1.51-5.14-4.09-4.05-7.87c0.6-2.07,1.77-3.87,3.27-5.48c0.65-0.7,1.03-1.43,1.08-2.37c0.08-1.4,0.27-2.8,0.49-4.18
			c0.1-0.64-0.11-0.72-0.71-0.62c-1.6,0.28-3.2,0.38-4.83,0.32c-4.98-0.18-8.73-2.64-12.27-5.49c-0.81-0.66-1.6-1.35-2.35-2.07
			c-0.38-0.36-0.66-0.32-1.06-0.04c-1.24,0.87-1.6,1.94-1.07,3.28c0.37,0.94,0.74,1.88,1.09,2.84c0.67,1.86,0.7,3.72,0.23,5.67
			c-0.64,2.65-0.89,5.36-1.22,8.05c-0.05,0.37-0.03,0.62,0.4,0.76c3.84,1.22,5.27,4.17,6.12,7.52c0.27,1.06,0.28,2.22,1.73,2.62
			c0.31,0.09,0.54,0.49,0.76,0.77c0.34,0.43,0.15,0.75-0.35,0.89c-1.56,0.43-3.12,0.94-4.64-0.06c-0.56-0.37-1.27-0.3-1.93-0.38
			c-3.14-0.43-5.74-1.59-6.65-4.66c-0.6-2.03-0.9-4.11,0.86-5.93c0.23-0.24,0.26-0.52,0.25-0.82c-0.05-1.79-0.07-3.59-0.13-5.38
			C40.38,114.35,39.41,113.15,38.87,111.51z"/>
	</g>
</g>
<g>
	<g>
		<path d="M63.09,148.73c-0.24,2.12-0.43,4.24-0.73,6.35c-0.1,0.7-0.32,1.53-0.78,2c-1.83,1.84-1.63,3.99-1.27,6.24
			c0.26,1.62,0.38,3.25,0.63,4.87c0.37,2.42,2.12,3.74,4.53,3.46c1.39-0.16,1.73-0.73,1.21-2.01c-0.33-0.82-0.7-1.59-1.6-1.93
			c-0.49-0.19-0.71-0.52-0.6-1.06c0.21-1.01,0.4-2.02,0.86-3.06c0.37,1.36,0.78,2.71,1.1,4.09c0.22,0.94,0.71,1.4,1.7,1.39
			c1-0.01,2,0.1,3,0.1c0.67,0,1.27-0.3,1.63-0.86c0.42-0.66-0.2-1.1-0.52-1.55c-0.51-0.7-0.89-1.63-2.12-1.26
			c-0.37,0.11-0.68-0.39-0.9-0.74c-0.89-1.34-0.86-2.83-0.75-4.34c0.03-0.41,0.29-0.65,0.65-0.79c0.34-0.13,0.66-0.32,1.02-0.4
			c3.09-0.7,5.89-1.91,8.39-3.98c1.59-1.31,3.8-1.39,5.77-1.93c0.28-0.08,0.67-0.03,0.93,0.1c4.9,2.48,10.3,3.2,15.54,4.47
			c2.57,0.62,5.01,1.63,7.44,2.66c0.67,0.29,1.32,0.75,2.01,0.82c1.83,0.18,2.48,1.14,2.44,2.9c-0.02,0.99,0.27,1.98,0.42,2.97
			c0.06,0.41,0.17,0.81,0.51,1.08c0.6,0.46,4.33,0.47,4.93-0.01c0.66-0.53,1.15-1.11,0.19-1.84c-0.29-0.22-0.57-0.47-0.79-0.75
			c-0.38-0.5-1.66-0.17-1.28-1.36c0.4-1.23,0.18-2.82,1.92-3.29c0.35-0.09,0.69-0.25,0.99-0.44c0.79-0.49,1.04-0.15,1.05,0.63
			c0.04,1.68,0.16,3.37,0.11,5.05c-0.04,1.3,0.42,2.26,1.37,3.1c1.25,1.11,5.15,1.27,6.45,0.2c0.9-0.74,0.88-1.21-0.09-1.87
			c-0.64-0.44-1.29-0.87-2.13-0.7c-0.69,0.13-0.94-0.36-1.21-0.87c-0.97-1.84-0.39-3.73-0.27-5.62c0.12-2.02,0.82-3.64,2.43-4.94
			c0.95-0.76,1.77-1.71,2.55-2.65c1.65-1.98,2.58-4.2,2.43-6.89c-0.12-2.08-0.19-4.19,0.17-6.27c0.14-0.82,0.41-1.58,0.8-2.3
			c0.98-1.78,1.02-1.8,2.87-1.03c1.24,0.51,1.73,0.17,1.6-1.13c-0.05-0.49-0.17-0.98-0.29-1.47c-0.48-1.95,0.49-3.4,2.52-3.55
			c1.4-0.1,2.82-0.01,4.23-0.03c1.92-0.03,5.68-2.8,6.36-4.58c0.26-0.7-0.14-0.89-0.6-1.12c-1.34-0.69-2.79-1.1-4.18-1.65
			c-2.09-0.83-4.31-1.16-5.98-3.15c-1.37-1.64-3.77-1.9-5.95-1.94c-1.7-0.03-3.34,0.31-4.92,0.95c-1.48,0.6-2.56,1.54-2.86,3.2
			c-0.07,0.4-0.19,0.83-0.42,1.14c-2.28,3.16-3.68,6.79-5.44,10.22c-0.5,0.97-1.12,1.53-2.22,1.75c-3.03,0.61-6,1.4-8.8,2.8
			c-2.5,1.25-5.2,0.57-7.8,0.24c-7.68-0.97-15.35-0.84-23.04-0.22c-2.09,0.17-4.16,0.42-6.25,0.62c-0.97,0.09-1.88,0.39-2.7,0.88
			c-4.01,2.44-7.54,5.39-10.03,9.46c-1.59,2.6-3.3,5.13-4.95,7.69c-0.69,1.08-1.4,2.13-2.68,2.62c-0.31,0.12-0.72,0.37-0.59,0.8
			c0.12,0.4,0.54,0.21,0.83,0.21c1.35,0.01,2.45-0.44,3.29-1.58c2.32-3.15,4.69-6.27,7.05-9.39c0.16-0.21,0.35-0.4,0.52-0.6
			C62.91,148.68,63,148.7,63.09,148.73z"/>
	</g>
</g>
<circle class="st3" cx="95.58" cy="95.08" r="94.21"/>
<polygon class="st0" points="182.42,55.57 183.95,59.23 186.39,57.4 185.63,55.57 "/>
</svg>
