<?xml version="1.0" encoding="utf-8"?>
<!-- Generator: Adobe Illustrator 25.4.1, SVG Export Plug-In . SVG Version: 6.00 Build 0)  -->
<svg version="1.1" id="Layer_1" xmlns="http://www.w3.org/2000/svg" xmlns:xlink="http://www.w3.org/1999/xlink" x="0px" y="0px"
	 viewBox="0 0 160 160" style="enable-background:new 0 0 160 160;" xml:space="preserve">
<style type="text/css">
	.st0{fill:none;stroke:#000000;stroke-width:12;stroke-miterlimit:10;}
</style>
<line class="st0" x1="43.6" y1="126.7" x2="105.6" y2="77.9"/>
<line class="st0" x1="106.2" y1="82.4" x2="45" y2="31.3"/>
<g>
	<g>
		<path d="M110,80.2c0-3.2-5-3.2-5,0C105,83.4,110,83.4,110,80.2L110,80.2z"/>
	</g>
</g>
<g>
	<g>
		<path d="M110.8,80c0-3.2-5-3.2-5,0S110.8,83.3,110.8,80L110.8,80z"/>
	</g>
</g>
<g>
	<g>
		<path d="M110.2,80.6c0-0.1,0-0.1,0-0.1c0-0.3-0.1-0.7-0.2-1c-0.1-0.3-0.3-0.6-0.5-0.8c-0.2-0.2-0.5-0.4-0.8-0.5
			c-0.3-0.2-0.6-0.2-1-0.2c-0.2,0-0.4,0.1-0.7,0.1c-0.4,0.1-0.8,0.3-1.1,0.6c-0.1,0.2-0.3,0.3-0.4,0.5c-0.2,0.4-0.3,0.8-0.3,1.3
			c0,0.1,0,0.1,0,0.1c0,0.3,0.1,0.7,0.2,1c0.1,0.3,0.3,0.6,0.5,0.8c0.2,0.2,0.5,0.4,0.8,0.5c0.3,0.2,0.6,0.2,1,0.2
			c0.2,0,0.4-0.1,0.7-0.1c0.4-0.1,0.8-0.3,1.1-0.6c0.1-0.2,0.3-0.3,0.4-0.5C110,81.5,110.2,81.1,110.2,80.6L110.2,80.6z"/>
	</g>
</g>
<g>
	<g>
		<path d="M110.7,80.2c0-3.2-5-3.2-5,0C105.7,83.4,110.7,83.4,110.7,80.2L110.7,80.2z"/>
	</g>
</g>
<g>
	<g>
		<path d="M110.5,80.4c0-3.2-5-3.2-5,0S110.5,83.6,110.5,80.4L110.5,80.4z"/>
	</g>
</g>
<g>
	<g>
		<path d="M110.4,80.5c0-3.2-5-3.2-5,0S110.4,83.7,110.4,80.5L110.4,80.5z"/>
	</g>
</g>
<g>
	<g>
		<path d="M110.8,79.9c0-3.2-5-3.2-5,0S110.8,83.1,110.8,79.9L110.8,79.9z"/>
	</g>
</g>
<g>
	<g>
		<path d="M110.8,79.4c0-3.2-5-3.2-5,0S110.8,82.7,110.8,79.4L110.8,79.4z"/>
	</g>
</g>
</svg>
