<?xml version="1.0" encoding="utf-8"?>
<!-- Generator: Adobe Illustrator 25.4.1, SVG Export Plug-In . SVG Version: 6.00 Build 0)  -->
<svg version="1.1" id="Layer_1" xmlns="http://www.w3.org/2000/svg" xmlns:xlink="http://www.w3.org/1999/xlink" x="0px" y="0px"
	 viewBox="0 0 612 90" style="enable-background:new 0 0 612 90;" xml:space="preserve">
<g>
	<g>
		<path d="M453.61,61.57c-31.65-0.7-56.5-6.12-80.4-15.95c-3.01-1.24-5.73-1.46-8.82-0.44c-6.85,2.25-13.88,3.5-21.14,2.74
			c-2.59-0.27-5.1-0.89-7.39-2.16c-3.85-2.14-4.13-6.21-0.56-8.87c3.8-2.83,8.29-3.09,12.79-2.96c6.3,0.19,12.36,1.8,18.05,4.32
			c6.39,2.84,11.13-1.04,16.1-3.48c2.21-1.09-0.29-2-1.2-2.4c-6.57-2.85-13.23-5.49-20.09-7.56c-10.74-3.25-21.57-5.65-32.9-3.47
			c-5.78,1.11-10.96,3.34-15.24,7.51c-1.65,1.6-1.97,2.95-0.75,5.19c6.1,11.24,8.05,23.21,5.46,35.83c-0.6,2.91-1.59,5.67-3.51,7.99
			c-2.93,3.53-7.31,3.66-10.36,0.23c-2.5-2.81-3.72-6.26-4.32-9.89c-1.99-11.88-0.42-23.24,5.68-33.7c1.52-2.62,1.15-4.16-0.89-6.03
			c-6.16-5.67-13.7-7.52-21.7-7.91c-10.99-0.54-21.41,2.27-31.61,5.96c-4.96,1.79-9.83,3.84-14.73,5.82
			c-0.72,0.29-1.77,0.45-1.85,1.4c-0.11,1.22,1.07,1.4,1.89,1.77c2.24,1.02,4.53,1.94,6.75,3c2.27,1.08,4.45,1.03,6.79,0.17
			c5.95-2.19,11.94-4.25,18.35-4.69c3.93-0.27,7.76,0.1,11.41,1.56c2.63,1.05,4.79,2.74,4.74,5.92c-0.05,3-2.38,4.19-4.74,5.02
			c-8.49,2.98-16.97,1.91-25.22-0.8c-4.18-1.37-7.76-1.17-11.82,0.45c-25.46,10.11-51.83,15.78-79.32,15.19
			c-12.92-0.27-25.07-3.57-35.75-11.19c-6.7-4.77-10.12-11.22-9.53-19.64c0.49-7.06,4.06-12.01,10.36-14.74
			c6.28-2.73,12.46-1.94,17.93,2.3c3.63,2.81,4.8,6.84,4.68,11.29c-0.04,1.56-0.61,3.05-1.69,4.17c-1.24,1.29-2.87,1.81-4.46,0.75
			c-1.71-1.15-1.4-2.81-0.55-4.39c4.13-7.71,0.83-13.22-8.11-13.49c-8.34-0.25-14.11,5.18-14.59,13.84
			c-0.47,8.5,3.63,14.65,10.31,19.26c9.67,6.67,20.56,9.62,32.2,9.8c19.01,0.3,37.25-4.03,55.21-9.74
			c6.59-2.09,13.05-4.63,19.56-6.99c0.75-0.27,1.78-0.41,1.83-1.39c0.05-1.01-1.02-1.14-1.71-1.52c-0.2-0.11-0.46-0.15-0.64-0.29
			c-5.93-4.36-11.67-3.62-18.17-0.6c-9.66,4.49-20.03,6.6-30.83,5.59c-4.3-0.4-8.24-1.82-11.88-4.06c-3.69-2.27-5.72-5.54-5.45-9.97
			c0.26-4.39,2.9-7.04,6.74-8.66c7.41-3.12,14.95-2.31,22.47-0.57c7.92,1.84,15.53,4.62,22.81,8.21c2.34,1.15,4.22,0.95,6.6-0.04
			c17.52-7.31,35.68-11.61,54.8-10.49c8.3,0.49,15.88,3.08,21.88,9.19c1.19,1.21,2.1,1.08,3.23-0.08c8-8.15,18.22-9.72,28.9-9.37
			c16.95,0.56,33.24,4.24,48.72,11.26c1.85,0.84,3.27,0.43,4.97-0.35c10.59-4.86,21.36-9.21,33.21-9.77
			c4.49-0.21,8.92,0.16,13.06,2.18c7.25,3.53,8.4,11.77,2.32,17.06c-3.75,3.27-8.28,4.86-13.16,5.39
			c-11.79,1.27-23.17-0.97-33.42-6.43c-7.09-3.78-12.03-0.45-17.45,2.38c-2.41,1.26,0.02,1.94,0.96,2.31
			c8.07,3.21,16.23,6.19,24.57,8.63c16.39,4.79,32.98,8.44,50.19,8.12c11.5-0.22,22.31-2.97,31.95-9.49
			c8.96-6.06,12.6-15.41,9.64-24.35c-2.96-8.93-14.91-12.13-21.98-5.89c-2.74,2.42-3.09,5.76-0.92,8.82
			c0.41,0.57,0.95,1.07,1.27,1.68c0.69,1.32,0.98,2.75-0.27,3.89c-1.31,1.19-2.82,1.03-4.21,0.09c-1.45-0.99-2.13-2.48-2.26-4.2
			c-0.41-5.48,1.3-9.91,6.15-12.91c6.27-3.87,14.67-3.43,20.47,1.16c5.75,4.55,8,13.04,5.43,20.53
			c-2.45,7.14-7.73,11.62-14.17,14.96C472.82,59.48,460.63,61.86,453.61,61.57z M422.79,40.72c7.06,0.46,13.12-0.81,16.44-3.03
			c5.63-3.76,5.28-10.85-0.73-13.92c-1.03-0.53-2.16-0.93-3.3-1.17c-14.36-3.05-26.95,2.51-39.44,8.32
			c-2.09,0.97-0.87,1.93,0.55,2.51C405.34,37.08,414.33,40.86,422.79,40.72z M192.07,40.8c10.25,0.14,19.47-3.64,28.69-7.45
			c0.64-0.27,1.49-0.43,1.46-1.27c-0.03-0.97-0.98-1.22-1.71-1.56c-7.02-3.27-14.21-6.09-21.77-7.81
			c-6.38-1.45-12.77-1.57-19.06,0.57c-3.4,1.16-5.7,3.53-5.92,7.13c-0.22,3.61,1.85,6.15,5.03,7.79
			C182.99,40.35,187.49,40.85,192.07,40.8z M302.05,57.62c-0.02,4.93,0.05,9.4,2,13.55c0.84,1.78,2.14,3.06,4.28,3.16
			c2.19,0.1,3.46-1.24,4.41-2.93c0.51-0.91,0.94-1.92,1.14-2.94c2.14-10.87,1.28-21.45-3.35-31.6c-0.41-0.91-0.7-2.23-2-2.15
			c-1.22,0.08-1.5,1.36-1.94,2.28C303.46,43.67,301.74,50.66,302.05,57.62z M269.93,46.06c2.97-0.18,6.39-0.03,9.56-1.53
			c1.23-0.58,2.22-1.4,2.34-2.83c0.13-1.6-0.86-2.61-2.15-3.33c-0.61-0.34-1.28-0.58-1.95-0.76c-8.11-2.26-15.43,0.52-22.69,3.63
			c-0.55,0.24-1.09,0.63-0.89,1.31c0.22,0.75,0.98,0.93,1.63,1.17C260.23,45.34,264.84,45.95,269.93,46.06z M347.66,46.05
			c4.78-0.21,9.32-0.47,13.55-2.46c0.61-0.29,1.45-0.43,1.43-1.31c-0.03-0.86-0.84-1.04-1.47-1.28c-4.04-1.51-7.98-3.38-12.3-3.97
			c-3.62-0.5-7.24-0.44-10.73,0.8c-1.61,0.57-3,1.6-3.04,3.47c-0.04,1.78,1.4,2.59,2.82,3.22
			C341.08,45.95,344.48,46.01,347.66,46.05z"/>
	</g>
</g>
</svg>
