<?xml version="1.0" encoding="utf-8"?>
<!-- Generator: Adobe Illustrator 25.4.1, SVG Export Plug-In . SVG Version: 6.00 Build 0)  -->
<svg version="1.1" id="Layer_1" xmlns="http://www.w3.org/2000/svg" xmlns:xlink="http://www.w3.org/1999/xlink" x="0px" y="0px"
	 viewBox="0 0 416.88 71" style="enable-background:new 0 0 416.88 71;" xml:space="preserve">
<style type="text/css">
	.st0{fill:url(#SVGID_1_);stroke:#67686B;stroke-miterlimit:10;}
	.st1{fill:url(#SVGID_00000084529912874347020450000010749513252422440380_);stroke:#67686B;stroke-miterlimit:10;}
	.st2{fill:url(#SVGID_00000139271605291868382120000007550762501426386590_);stroke:#67686B;stroke-miterlimit:10;}
	.st3{fill:url(#SVGID_00000152260112916154391130000005424628341854912191_);stroke:#67686B;stroke-miterlimit:10;}
	.st4{fill:url(#SVGID_00000173845390552094810780000017933300556944522885_);stroke:#67686B;stroke-miterlimit:10;}
</style>
<linearGradient id="SVGID_1_" gradientUnits="userSpaceOnUse" x1="187.8675" y1="39.424" x2="259.1732" y2="39.424" gradientTransform="matrix(0.309 0.9511 -0.9511 0.309 183.4059 -177.1696)">
	<stop  offset="0" style="stop-color:#AAAAAA"/>
	<stop  offset="1" style="stop-color:#373737"/>
</linearGradient>
<polygon class="st0" points="186.52,69.44 190.66,44.89 172.79,27.56 197.41,23.92 208.37,1.56 219.45,23.85 244.1,27.37 
	226.32,44.79 230.59,69.32 208.53,57.79 "/>
<linearGradient id="SVGID_00000139991853518949523940000003872749565024071586_" gradientUnits="userSpaceOnUse" x1="355.4752" y1="36.7712" x2="426.7809" y2="36.7712" gradientTransform="matrix(0.309 0.9511 -0.9511 0.309 300.8736 -338.8494)">
	<stop  offset="0" style="stop-color:#B1B1B1"/>
	<stop  offset="1" style="stop-color:#3F3F3F"/>
</linearGradient>
<polygon style="fill:url(#SVGID_00000139991853518949523940000003872749565024071586_);stroke:#67686B;stroke-miterlimit:10;" points="
	359.31,69.44 363.45,44.89 345.58,27.56 370.2,23.92 381.16,1.56 392.24,23.85 416.88,27.37 399.11,44.79 403.38,69.32 
	381.32,57.79 "/>
<linearGradient id="SVGID_00000109018812007586230750000010264241370116569022_" gradientUnits="userSpaceOnUse" x1="271.5048" y1="38.0667" x2="342.8057" y2="38.0667" gradientTransform="matrix(0.309 0.9511 -0.9511 0.309 242.1403 -258.0096)">
	<stop  offset="0" style="stop-color:#C3C3C3"/>
	<stop  offset="1" style="stop-color:#383838"/>
</linearGradient>
<polygon style="fill:url(#SVGID_00000109018812007586230750000010264241370116569022_);stroke:#67686B;stroke-miterlimit:10;" points="
	273.3,69.54 277.22,44.95 259.19,27.79 283.78,23.92 294.53,1.46 305.81,23.65 330.49,26.94 312.87,44.53 317.37,69.01 295.2,57.69 
	"/>
<linearGradient id="SVGID_00000142876507849559106620000012592618279003920314_" gradientUnits="userSpaceOnUse" x1="104.6132" y1="38.7423" x2="175.9189" y2="38.7423" gradientTransform="matrix(0.309 0.9511 -0.9511 0.309 123.221 -94.2976)">
	<stop  offset="0" style="stop-color:#AEAEAE"/>
	<stop  offset="0.9992" style="stop-color:#252525"/>
</linearGradient>
<polygon style="fill:url(#SVGID_00000142876507849559106620000012592618279003920314_);stroke:#67686B;stroke-miterlimit:10;" points="
	100.13,69.44 104.27,44.89 86.39,27.56 111.02,23.92 121.98,1.56 133.05,23.85 157.7,27.37 139.92,44.79 144.2,69.32 122.13,57.79 
	"/>
<linearGradient id="SVGID_00000050646297014914584090000010668176180614100112_" gradientUnits="userSpaceOnUse" x1="77.9161" y1="120.9086" x2="149.2218" y2="120.9086" gradientTransform="matrix(0.309 0.9511 -0.9511 0.309 123.221 -94.2976)">
	<stop  offset="0" style="stop-color:#AEAEAE"/>
	<stop  offset="0.9992" style="stop-color:#252525"/>
</linearGradient>
<polygon style="fill:url(#SVGID_00000050646297014914584090000010668176180614100112_);stroke:#67686B;stroke-miterlimit:10;" points="
	13.73,69.44 17.87,44.89 0,27.56 24.63,23.92 35.58,1.56 46.66,23.85 71.31,27.37 53.53,44.79 57.8,69.32 35.74,57.79 "/>
</svg>
