<?xml version="1.0" encoding="utf-8"?>
<!-- Generator: Adobe Illustrator 25.4.1, SVG Export Plug-In . SVG Version: 6.00 Build 0)  -->
<svg version="1.1" id="Layer_1" xmlns="http://www.w3.org/2000/svg" xmlns:xlink="http://www.w3.org/1999/xlink" x="0px" y="0px"
	 viewBox="0 0 416.88 71" style="enable-background:new 0 0 416.88 71;" xml:space="preserve">
<style type="text/css">
	.st0{fill:url(#SVGID_1_);stroke:#67686B;stroke-miterlimit:10;}
	.st1{fill:url(#SVGID_00000163032651315521645570000007518392665444073602_);stroke:#67686B;stroke-miterlimit:10;}
	.st2{fill:url(#SVGID_00000029757915715850483500000015990353371017605026_);stroke:#67686B;stroke-miterlimit:10;}
	.st3{fill:url(#SVGID_00000030451088020546322960000017076991681044372151_);stroke:#67686B;stroke-miterlimit:10;}
	.st4{fill:url(#SVGID_00000152224991244892453310000004737588351088785053_);stroke:#968F45;stroke-miterlimit:10;}
</style>
<linearGradient id="SVGID_1_" gradientUnits="userSpaceOnUse" x1="187.7334" y1="39.8368" x2="259.039" y2="39.8368" gradientTransform="matrix(0.309 0.9511 -0.9511 0.309 183.4059 -177.1696)">
	<stop  offset="0" style="stop-color:#AAAAAA"/>
	<stop  offset="1" style="stop-color:#373737"/>
</linearGradient>
<polygon class="st0" points="186.09,69.44 190.23,44.89 172.36,27.56 196.98,23.92 207.94,1.56 219.02,23.85 243.66,27.37 
	225.88,44.79 230.16,69.32 208.09,57.79 "/>
<linearGradient id="SVGID_00000136393680531022008920000016820687400998075282_" gradientUnits="userSpaceOnUse" x1="355.2627" y1="37.4251" x2="426.5684" y2="37.4251" gradientTransform="matrix(0.309 0.9511 -0.9511 0.309 300.8736 -338.8494)">
	<stop  offset="0" style="stop-color:#B1B1B1"/>
	<stop  offset="1" style="stop-color:#3F3F3F"/>
</linearGradient>
<polygon style="fill:url(#SVGID_00000136393680531022008920000016820687400998075282_);stroke:#67686B;stroke-miterlimit:10;" points="
	358.63,69.44 362.77,44.89 344.89,27.56 369.52,23.92 380.47,1.56 391.55,23.85 416.2,27.37 398.42,44.79 402.69,69.32 
	380.63,57.79 "/>
<linearGradient id="SVGID_00000087408597297158190630000006886897353171321481_" gradientUnits="userSpaceOnUse" x1="271.3315" y1="38.6001" x2="342.6324" y2="38.6001" gradientTransform="matrix(0.309 0.9511 -0.9511 0.309 242.1403 -258.0096)">
	<stop  offset="0" style="stop-color:#C3C3C3"/>
	<stop  offset="1" style="stop-color:#383838"/>
</linearGradient>
<polygon style="fill:url(#SVGID_00000087408597297158190630000006886897353171321481_);stroke:#67686B;stroke-miterlimit:10;" points="
	272.74,69.54 276.66,44.95 258.63,27.79 283.22,23.92 293.97,1.46 305.25,23.65 329.93,26.94 312.31,44.53 316.81,69.01 
	294.64,57.69 "/>
<linearGradient id="SVGID_00000083056932743105571190000013837041338295000448_" gradientUnits="userSpaceOnUse" x1="104.5183" y1="39.0345" x2="175.824" y2="39.0345" gradientTransform="matrix(0.309 0.9511 -0.9511 0.309 123.221 -94.2976)">
	<stop  offset="0" style="stop-color:#AEAEAE"/>
	<stop  offset="0.9992" style="stop-color:#252525"/>
</linearGradient>
<polygon style="fill:url(#SVGID_00000083056932743105571190000013837041338295000448_);stroke:#67686B;stroke-miterlimit:10;" points="
	99.82,69.44 103.96,44.89 86.09,27.56 110.71,23.92 121.67,1.56 132.75,23.85 157.39,27.37 139.61,44.79 143.89,69.32 121.82,57.79 
	"/>
<linearGradient id="SVGID_00000070815710194798504470000009906451976738965693_" gradientUnits="userSpaceOnUse" x1="-0.8371" y1="29.2815" x2="70.4686" y2="29.2815" gradientTransform="matrix(0.3255 -0.9455 0.9455 0.3255 -7.0827 61.1821)">
	<stop  offset="0" style="stop-color:#CCB21A"/>
	<stop  offset="1" style="stop-color:#FFE674"/>
</linearGradient>
<polygon style="fill:url(#SVGID_00000070815710194798504470000009906451976738965693_);stroke:#968F45;stroke-miterlimit:10;" points="
	56.89,69.57 35.03,57.66 12.83,68.92 17.39,44.45 -0.18,26.81 24.51,23.6 35.85,1.43 46.54,23.92 71.12,27.86 53.04,44.97 "/>
</svg>
