<?xml version="1.0" encoding="utf-8"?>
<!-- Generator: Adobe Illustrator 25.4.1, SVG Export Plug-In . SVG Version: 6.00 Build 0)  -->
<svg version="1.1" id="Layer_1" xmlns="http://www.w3.org/2000/svg" xmlns:xlink="http://www.w3.org/1999/xlink" x="0px" y="0px"
	 viewBox="0 0 416.88 71" style="enable-background:new 0 0 416.88 71;" xml:space="preserve">
<style type="text/css">
	.st0{fill:url(#SVGID_1_);stroke:#67686B;stroke-miterlimit:10;}
	.st1{fill:url(#SVGID_00000080897024452913654100000009711102435550635195_);stroke:#67686B;stroke-miterlimit:10;}
	.st2{fill:url(#SVGID_00000093155216644877186420000004411640019848894359_);stroke:#968F45;stroke-miterlimit:10;}
	.st3{fill:url(#SVGID_00000085232415168911688910000013563481554577754243_);stroke:#968F45;stroke-miterlimit:10;}
	.st4{fill:url(#SVGID_00000071558769591068615840000002958695216151792290_);stroke:#968F45;stroke-miterlimit:10;}
</style>
<linearGradient id="SVGID_1_" gradientUnits="userSpaceOnUse" x1="355.6285" y1="36.2992" x2="426.9342" y2="36.2992" gradientTransform="matrix(0.309 0.9511 -0.9511 0.309 300.8736 -338.8494)">
	<stop  offset="0" style="stop-color:#B1B1B1"/>
	<stop  offset="1" style="stop-color:#3F3F3F"/>
</linearGradient>
<polygon class="st0" points="359.81,69.44 363.95,44.89 346.07,27.56 370.7,23.92 381.66,1.56 392.74,23.85 417.38,27.37 
	399.6,44.79 403.88,69.32 381.81,57.79 "/>
<linearGradient id="SVGID_00000056387339802421932770000001259293969367025339_" gradientUnits="userSpaceOnUse" x1="271.6581" y1="37.5947" x2="342.959" y2="37.5947" gradientTransform="matrix(0.309 0.9511 -0.9511 0.309 242.1403 -258.0096)">
	<stop  offset="0" style="stop-color:#C3C3C3"/>
	<stop  offset="1" style="stop-color:#383838"/>
</linearGradient>
<polygon style="fill:url(#SVGID_00000056387339802421932770000001259293969367025339_);stroke:#67686B;stroke-miterlimit:10;" points="
	273.8,69.54 277.71,44.95 259.68,27.79 284.27,23.92 295.02,1.46 306.31,23.65 330.98,26.94 313.37,44.53 317.87,69.01 
	295.69,57.69 "/>
<linearGradient id="SVGID_00000014624298212626917590000009508765176071606437_" gradientUnits="userSpaceOnUse" x1="27.5047" y1="111.6113" x2="98.8104" y2="111.6113" gradientTransform="matrix(0.3255 -0.9455 0.9455 0.3255 -7.0827 61.1821)">
	<stop  offset="0" style="stop-color:#CCB21A"/>
	<stop  offset="1" style="stop-color:#FFE674"/>
</linearGradient>
<polygon style="fill:url(#SVGID_00000014624298212626917590000009508765176071606437_);stroke:#968F45;stroke-miterlimit:10;" points="
	143.96,69.57 122.1,57.66 99.9,68.92 104.47,44.45 86.89,26.81 111.58,23.6 122.92,1.43 133.61,23.92 158.19,27.86 140.11,44.97 "/>
<linearGradient id="SVGID_00000026850859152179131400000012454517852183945648_" gradientUnits="userSpaceOnUse" x1="-0.2901" y1="30.8706" x2="71.0156" y2="30.8706" gradientTransform="matrix(0.3255 -0.9455 0.9455 0.3255 -7.0827 61.1821)">
	<stop  offset="0" style="stop-color:#CCB21A"/>
	<stop  offset="1" style="stop-color:#FFE674"/>
</linearGradient>
<polygon style="fill:url(#SVGID_00000026850859152179131400000012454517852183945648_);stroke:#968F45;stroke-miterlimit:10;" points="
	58.57,69.57 36.71,57.66 14.51,68.92 19.07,44.45 1.5,26.81 26.19,23.6 37.53,1.43 48.22,23.92 72.8,27.86 54.72,44.97 "/>
<linearGradient id="SVGID_00000148643228306286132160000006337867769131493029_" gradientUnits="userSpaceOnUse" x1="55.626" y1="193.3005" x2="126.9317" y2="193.3005" gradientTransform="matrix(0.3255 -0.9455 0.9455 0.3255 -7.0827 61.1821)">
	<stop  offset="0" style="stop-color:#CCB21A"/>
	<stop  offset="1" style="stop-color:#FFE674"/>
</linearGradient>
<polygon style="fill:url(#SVGID_00000148643228306286132160000006337867769131493029_);stroke:#968F45;stroke-miterlimit:10;" points="
	230.36,69.57 208.49,57.66 186.29,68.92 190.86,44.45 173.29,26.81 197.97,23.6 209.32,1.43 220.01,23.92 244.59,27.86 
	226.51,44.97 "/>
</svg>
