<?xml version="1.0" encoding="utf-8"?>
<!-- Generator: Adobe Illustrator 25.4.1, SVG Export Plug-In . SVG Version: 6.00 Build 0)  -->
<svg version="1.1" id="Layer_1" xmlns="http://www.w3.org/2000/svg" xmlns:xlink="http://www.w3.org/1999/xlink" x="0px" y="0px"
	 viewBox="0 0 416.88 71" style="enable-background:new 0 0 416.88 71;" xml:space="preserve">
<style type="text/css">
	.st0{fill:url(#SVGID_1_);stroke:#67686B;stroke-miterlimit:10;}
	.st1{fill:url(#SVGID_00000116235818427213668340000003366930464374411401_);stroke:#968F45;stroke-miterlimit:10;}
	.st2{fill:url(#SVGID_00000167380762458127852440000016343778060499273104_);stroke:#968F45;stroke-miterlimit:10;}
	.st3{fill:url(#SVGID_00000085937490438814184310000006684934898365950627_);stroke:#968F45;stroke-miterlimit:10;}
	.st4{fill:url(#SVGID_00000067205766391325020330000007506743983761522870_);stroke:#968F45;stroke-miterlimit:10;}
</style>
<linearGradient id="SVGID_1_" gradientUnits="userSpaceOnUse" x1="355.3195" y1="37.2502" x2="426.6252" y2="37.2502" gradientTransform="matrix(0.309 0.9511 -0.9511 0.309 300.8736 -338.8494)">
	<stop  offset="0" style="stop-color:#B1B1B1"/>
	<stop  offset="1" style="stop-color:#3F3F3F"/>
</linearGradient>
<polygon class="st0" points="358.81,69.44 362.95,44.89 345.07,27.56 369.7,23.92 380.66,1.56 391.74,23.85 416.38,27.37 
	398.6,44.79 402.88,69.32 380.81,57.79 "/>
<linearGradient id="SVGID_00000053527929307709068330000005256370122142989981_" gradientUnits="userSpaceOnUse" x1="27.1792" y1="110.6658" x2="98.4849" y2="110.6658" gradientTransform="matrix(0.3255 -0.9455 0.9455 0.3255 -7.0827 61.1821)">
	<stop  offset="0" style="stop-color:#CCB21A"/>
	<stop  offset="1" style="stop-color:#FFE674"/>
</linearGradient>
<polygon style="fill:url(#SVGID_00000053527929307709068330000005256370122142989981_);stroke:#968F45;stroke-miterlimit:10;" points="
	142.96,69.57 121.1,57.66 98.9,68.92 103.47,44.45 85.89,26.81 110.58,23.6 121.92,1.43 132.61,23.92 157.19,27.86 139.11,44.97 "/>
<linearGradient id="SVGID_00000127732696696580230360000005850152152202310021_" gradientUnits="userSpaceOnUse" x1="-0.6156" y1="29.925" x2="70.6901" y2="29.925" gradientTransform="matrix(0.3255 -0.9455 0.9455 0.3255 -7.0827 61.1821)">
	<stop  offset="0" style="stop-color:#CCB21A"/>
	<stop  offset="1" style="stop-color:#FFE674"/>
</linearGradient>
<polygon style="fill:url(#SVGID_00000127732696696580230360000005850152152202310021_);stroke:#968F45;stroke-miterlimit:10;" points="
	57.57,69.57 35.71,57.66 13.51,68.92 18.07,44.45 0.5,26.81 25.19,23.6 36.53,1.43 47.22,23.92 71.8,27.86 53.72,44.97 "/>
<linearGradient id="SVGID_00000124849690649080226900000015708521794851131063_" gradientUnits="userSpaceOnUse" x1="55.3005" y1="192.3549" x2="126.6062" y2="192.3549" gradientTransform="matrix(0.3255 -0.9455 0.9455 0.3255 -7.0827 61.1821)">
	<stop  offset="0" style="stop-color:#CCB21A"/>
	<stop  offset="1" style="stop-color:#FFE674"/>
</linearGradient>
<polygon style="fill:url(#SVGID_00000124849690649080226900000015708521794851131063_);stroke:#968F45;stroke-miterlimit:10;" points="
	229.36,69.57 207.49,57.66 185.29,68.92 189.86,44.45 172.29,26.81 196.97,23.6 208.32,1.43 219.01,23.92 243.59,27.86 
	225.51,44.97 "/>
<linearGradient id="SVGID_00000018227798176627308340000007953223608065055372_" gradientUnits="userSpaceOnUse" x1="83.4216" y1="274.0432" x2="154.7273" y2="274.0432" gradientTransform="matrix(0.3255 -0.9455 0.9455 0.3255 -7.0827 61.1821)">
	<stop  offset="0" style="stop-color:#CCB21A"/>
	<stop  offset="1" style="stop-color:#FFE674"/>
</linearGradient>
<polygon style="fill:url(#SVGID_00000018227798176627308340000007953223608065055372_);stroke:#968F45;stroke-miterlimit:10;" points="
	315.75,69.57 293.89,57.66 271.69,68.92 276.25,44.45 258.68,26.81 283.37,23.6 294.71,1.43 305.4,23.92 329.98,27.86 311.9,44.97 
	"/>
</svg>
