<?xml version="1.0" encoding="utf-8"?>
<!-- Generator: Adobe Illustrator 25.4.1, SVG Export Plug-In . SVG Version: 6.00 Build 0)  -->
<svg version="1.1" id="Layer_1" xmlns="http://www.w3.org/2000/svg" xmlns:xlink="http://www.w3.org/1999/xlink" x="0px" y="0px"
	 viewBox="0 0 416.88 71" style="enable-background:new 0 0 416.88 71;" xml:space="preserve">
<style type="text/css">
	.st0{fill:url(#SVGID_1_);stroke:#968F45;stroke-miterlimit:10;}
	.st1{fill:url(#SVGID_00000090257599322647212170000015349537713188434593_);stroke:#968F45;stroke-miterlimit:10;}
	.st2{fill:url(#SVGID_00000160170960397902239900000010131468843554593695_);stroke:#968F45;stroke-miterlimit:10;}
	.st3{fill:url(#SVGID_00000011727023058399683900000016539159108823938450_);stroke:#968F45;stroke-miterlimit:10;}
	.st4{fill:url(#SVGID_00000096039337959918580610000014955167964254380431_);stroke:#968F45;stroke-miterlimit:10;}
</style>
<linearGradient id="SVGID_1_" gradientUnits="userSpaceOnUse" x1="27.5793" y1="111.8279" x2="98.885" y2="111.8279" gradientTransform="matrix(0.3255 -0.9455 0.9455 0.3255 -7.0827 61.1821)">
	<stop  offset="0" style="stop-color:#CCB21A"/>
	<stop  offset="1" style="stop-color:#FFE674"/>
</linearGradient>
<polygon class="st0" points="144.19,69.57 122.33,57.66 100.13,68.92 104.69,44.45 87.12,26.81 111.81,23.6 123.15,1.43 
	133.84,23.92 158.42,27.86 140.34,44.97 "/>
<linearGradient id="SVGID_00000165221286741072980180000016248730526986375828_" gradientUnits="userSpaceOnUse" x1="-0.2155" y1="31.0872" x2="71.0902" y2="31.0872" gradientTransform="matrix(0.3255 -0.9455 0.9455 0.3255 -7.0827 61.1821)">
	<stop  offset="0" style="stop-color:#CCB21A"/>
	<stop  offset="1" style="stop-color:#FFE674"/>
</linearGradient>
<polygon style="fill:url(#SVGID_00000165221286741072980180000016248730526986375828_);stroke:#968F45;stroke-miterlimit:10;" points="
	58.8,69.57 36.94,57.66 14.74,68.92 19.3,44.45 1.73,26.81 26.42,23.6 37.76,1.43 48.45,23.92 73.03,27.86 54.95,44.97 "/>
<linearGradient id="SVGID_00000070083128889635988460000016148334112580951941_" gradientUnits="userSpaceOnUse" x1="55.7006" y1="193.5171" x2="127.0063" y2="193.5171" gradientTransform="matrix(0.3255 -0.9455 0.9455 0.3255 -7.0827 61.1821)">
	<stop  offset="0" style="stop-color:#CCB21A"/>
	<stop  offset="1" style="stop-color:#FFE674"/>
</linearGradient>
<polygon style="fill:url(#SVGID_00000070083128889635988460000016148334112580951941_);stroke:#968F45;stroke-miterlimit:10;" points="
	230.59,69.57 208.72,57.66 186.52,68.92 191.09,44.45 173.52,26.81 198.2,23.6 209.55,1.43 220.24,23.92 244.82,27.86 226.74,44.97 
	"/>
<linearGradient id="SVGID_00000147219441096928762520000010700230464900113591_" gradientUnits="userSpaceOnUse" x1="83.8216" y1="275.2054" x2="155.1273" y2="275.2054" gradientTransform="matrix(0.3255 -0.9455 0.9455 0.3255 -7.0827 61.1821)">
	<stop  offset="0" style="stop-color:#CCB21A"/>
	<stop  offset="1" style="stop-color:#FFE674"/>
</linearGradient>
<polygon style="fill:url(#SVGID_00000147219441096928762520000010700230464900113591_);stroke:#968F45;stroke-miterlimit:10;" points="
	316.98,69.57 295.12,57.66 272.92,68.92 277.48,44.45 259.91,26.81 284.6,23.6 295.94,1.43 306.63,23.92 331.21,27.86 313.13,44.97 
	"/>
<linearGradient id="SVGID_00000005230111171257197640000003555773746747786906_" gradientUnits="userSpaceOnUse" x1="111.3834" y1="355.2692" x2="182.6891" y2="355.2692" gradientTransform="matrix(0.3255 -0.9455 0.9455 0.3255 -7.0827 61.1821)">
	<stop  offset="0" style="stop-color:#CCB21A"/>
	<stop  offset="1" style="stop-color:#FFE674"/>
</linearGradient>
<polygon style="fill:url(#SVGID_00000005230111171257197640000003555773746747786906_);stroke:#968F45;stroke-miterlimit:10;" points="
	401.66,69.57 379.79,57.66 357.59,68.92 362.16,44.45 344.59,26.81 369.27,23.6 380.61,1.43 391.3,23.92 415.88,27.86 397.81,44.97 
	"/>
</svg>
